<svg width="254" height="149" viewBox="0 0 254 149" fill="none" xmlns="http://www.w3.org/2000/svg">
<g clip-path="url(#clip0_35_41)">
<path d="M154.134 82.812H5.21448C3.83199 82.8104 2.50657 82.2585 1.52901 81.2774C0.551437 80.2963 0.00155633 78.966 0 77.5785V5.23347C0.00155633 3.84595 0.551437 2.5157 1.52901 1.53457C2.50657 0.553445 3.83199 0.001562 5.21448 0H154.134C155.516 0.001562 156.842 0.553445 157.819 1.53457C158.797 2.5157 159.347 3.84595 159.348 5.23347V77.5785C159.347 78.966 158.797 80.2963 157.819 81.2774C156.842 82.2585 155.516 82.8104 154.134 82.812ZM5.21448 0.615703C3.99464 0.617088 2.82516 1.10404 1.9626 1.96974C1.10004 2.83544 0.614849 4.00919 0.613469 5.23347V77.5785C0.614849 78.8028 1.10004 79.9765 1.9626 80.8422C2.82516 81.7079 3.99464 82.1949 5.21448 82.1963H154.134C155.354 82.1949 156.523 81.7079 157.386 80.8422C158.248 79.9765 158.734 78.8028 158.735 77.5785V5.23347C158.734 4.00919 158.248 2.83544 157.386 1.96974C156.523 1.10404 155.354 0.617088 154.134 0.615703H5.21448Z" fill="#3F3D56"/>
<path d="M28.603 18.0093C30.1276 18.0093 31.3636 16.7688 31.3636 15.2386C31.3636 13.7084 30.1276 12.468 28.603 12.468C27.0783 12.468 25.8424 13.7084 25.8424 15.2386C25.8424 16.7688 27.0783 18.0093 28.603 18.0093Z" fill="#CCCCCC"/>
<path d="M28.603 28.4763C30.1276 28.4763 31.3636 27.2358 31.3636 25.7056C31.3636 24.1754 30.1276 22.9349 28.603 22.9349C27.0783 22.9349 25.8424 24.1754 25.8424 25.7056C25.8424 27.2358 27.0783 28.4763 28.603 28.4763Z" fill="#CCCCCC"/>
<path d="M28.603 38.9432C30.1276 38.9432 31.3636 37.7027 31.3636 36.1725C31.3636 34.6423 30.1276 33.4019 28.603 33.4019C27.0783 33.4019 25.8424 34.6423 25.8424 36.1725C25.8424 37.7027 27.0783 38.9432 28.603 38.9432Z" fill="#CCCCCC"/>
<path d="M28.603 49.4101C30.1276 49.4101 31.3636 48.1696 31.3636 46.6394C31.3636 45.1092 30.1276 43.8688 28.603 43.8688C27.0783 43.8688 25.8424 45.1092 25.8424 46.6394C25.8424 48.1696 27.0783 49.4101 28.603 49.4101Z" fill="#CCCCCC"/>
<path d="M75.0732 70.344C76.5979 70.344 77.8338 69.1035 77.8338 67.5733C77.8338 66.0431 76.5979 64.8027 75.0732 64.8027C73.5486 64.8027 72.3126 66.0431 72.3126 67.5733C72.3126 69.1035 73.5486 70.344 75.0732 70.344Z" fill="#CCCCCC"/>
<path d="M55.1355 70.344C56.6601 70.344 57.8961 69.1035 57.8961 67.5733C57.8961 66.0431 56.6601 64.8027 55.1355 64.8027C53.6108 64.8027 52.3749 66.0431 52.3749 67.5733C52.3749 69.1035 53.6108 70.344 55.1355 70.344Z" fill="#CCCCCC"/>
<path d="M116.176 70.344C117.7 70.344 118.936 69.1035 118.936 67.5733C118.936 66.0431 117.7 64.8027 116.176 64.8027C114.651 64.8027 113.415 66.0431 113.415 67.5733C113.415 69.1035 114.651 70.344 116.176 70.344Z" fill="#CCCCCC"/>
<path d="M95.3177 70.344C96.8423 70.344 98.0783 69.1035 98.0783 67.5733C98.0783 66.0431 96.8423 64.8027 95.3177 64.8027C93.793 64.8027 92.5571 66.0431 92.5571 67.5733C92.5571 69.1035 93.793 70.344 95.3177 70.344Z" fill="#CCCCCC"/>
<path d="M133.199 15.5465H42.406C42.3247 15.5465 42.2466 15.514 42.1891 15.4563C42.1316 15.3986 42.0993 15.3203 42.0993 15.2386C42.0993 15.157 42.1316 15.0787 42.1891 15.021C42.2466 14.9632 42.3247 14.9308 42.406 14.9308H133.199C133.281 14.9308 133.359 14.9632 133.416 15.021C133.474 15.0787 133.506 15.157 133.506 15.2386C133.506 15.3203 133.474 15.3986 133.416 15.4563C133.359 15.514 133.281 15.5465 133.199 15.5465Z" fill="#CCCCCC"/>
<path d="M133.199 26.0134H42.406C42.3247 26.0134 42.2466 25.981 42.1891 25.9232C42.1316 25.8655 42.0993 25.7872 42.0993 25.7056C42.0993 25.6239 42.1316 25.5456 42.1891 25.4879C42.2466 25.4301 42.3247 25.3977 42.406 25.3977H133.199C133.281 25.3977 133.359 25.4301 133.416 25.4879C133.474 25.5456 133.506 25.6239 133.506 25.7056C133.506 25.7872 133.474 25.8655 133.416 25.9232C133.359 25.981 133.281 26.0134 133.199 26.0134Z" fill="#CCCCCC"/>
<path d="M133.199 36.4804H42.406C42.3247 36.4804 42.2466 36.4479 42.1891 36.3902C42.1316 36.3325 42.0993 36.2542 42.0993 36.1725C42.0993 36.0909 42.1316 36.0126 42.1891 35.9549C42.2466 35.8971 42.3247 35.8647 42.406 35.8647H133.199C133.281 35.8647 133.359 35.8971 133.416 35.9549C133.474 36.0126 133.506 36.0909 133.506 36.1725C133.506 36.2542 133.474 36.3325 133.416 36.3902C133.359 36.4479 133.281 36.4804 133.199 36.4804Z" fill="#CCCCCC"/>
<path d="M133.199 46.9473H42.406C42.3247 46.9473 42.2466 46.9149 42.1891 46.8571C42.1316 46.7994 42.0993 46.7211 42.0993 46.6395C42.0993 46.5578 42.1316 46.4795 42.1891 46.4218C42.2466 46.364 42.3247 46.3316 42.406 46.3316H133.199C133.281 46.3316 133.359 46.364 133.416 46.4218C133.474 46.4795 133.506 46.5578 133.506 46.6395C133.506 46.7211 133.474 46.7994 133.416 46.8571C133.359 46.9149 133.281 46.9473 133.199 46.9473Z" fill="#CCCCCC"/>
<path d="M59.5831 57.4142H50.6878C50.2812 57.4138 49.8914 57.2514 49.6039 56.9629C49.3164 56.6743 49.1546 56.2831 49.1542 55.875V47.563C49.1546 47.1549 49.3164 46.7637 49.6039 46.4751C49.8914 46.1865 50.2812 46.0242 50.6878 46.0237H59.5831C59.9898 46.0242 60.3796 46.1865 60.6671 46.4751C60.9546 46.7637 61.1163 47.1549 61.1168 47.563V55.875C61.1163 56.2831 60.9546 56.6743 60.6671 56.9629C60.3796 57.2514 59.9898 57.4138 59.5831 57.4142Z" fill="#00EEFD"/>
<path d="M79.5209 57.4143H70.6256C70.219 57.4138 69.8291 57.2515 69.5416 56.9629C69.2541 56.6743 69.0924 56.2831 69.0919 55.875V37.0961C69.0924 36.688 69.2541 36.2967 69.5416 36.0082C69.8291 35.7196 70.219 35.5573 70.6256 35.5568H79.5209C79.9275 35.5573 80.3173 35.7196 80.6048 36.0082C80.8924 36.2967 81.0541 36.688 81.0546 37.0961V55.875C81.0541 56.2831 80.8924 56.6743 80.6048 56.9629C80.3173 57.2515 79.9275 57.4138 79.5209 57.4143Z" fill="#00EEFD"/>
<path d="M99.7653 57.4143H90.87C90.4634 57.4138 90.0736 57.2515 89.7861 56.9629C89.4986 56.6744 89.3368 56.2831 89.3364 55.875V26.6292C89.3368 26.2211 89.4986 25.8298 89.7861 25.5413C90.0736 25.2527 90.4634 25.0904 90.87 25.0899H99.7653C100.172 25.0904 100.562 25.2527 100.849 25.5413C101.137 25.8298 101.299 26.2211 101.299 26.6292V55.875C101.299 56.2831 101.137 56.6744 100.849 56.9629C100.562 57.2515 100.172 57.4138 99.7653 57.4143Z" fill="#00EEFD"/>
<path d="M120.623 57.4143H111.728C111.321 57.4138 110.932 57.2515 110.644 56.9629C110.356 56.6743 110.195 56.2831 110.194 55.875V16.47C110.195 16.0619 110.356 15.6707 110.644 15.3821C110.932 15.0936 111.321 14.9313 111.728 14.9308H120.623C121.03 14.9313 121.42 15.0936 121.707 15.3821C121.995 15.6707 122.156 16.0619 122.157 16.47V55.875C122.156 56.2831 121.995 56.6743 121.707 56.9629C121.42 57.2515 121.03 57.4138 120.623 57.4143Z" fill="#00EEFD"/>
<path d="M203.504 147.259C200.745 144.92 199.07 141.224 199.509 137.627C199.949 134.029 202.67 130.722 206.2 129.958C209.73 129.194 213.754 131.309 214.827 134.77C215.417 128.098 216.097 121.145 219.631 115.463C222.832 110.318 228.375 106.636 234.383 105.978C240.391 105.319 246.716 107.807 250.463 112.566C254.21 117.325 255.127 124.244 252.503 129.708C250.57 133.733 247.009 136.728 243.277 139.165C231.219 146.974 216.756 150.149 202.551 148.107L203.504 147.259Z" fill="#F2F2F2"/>
<path d="M244.522 107.945C239.565 111.997 235.017 116.529 230.945 121.476C224.572 129.191 219.414 137.841 215.652 147.124C215.377 147.801 216.473 148.096 216.745 147.427C222.9 132.339 232.726 119.041 245.323 108.749C245.889 108.286 245.083 107.486 244.522 107.945Z" fill="white"/>
<path d="M174.412 62.5115C174.063 62.5106 173.716 62.4757 173.374 62.4071C173.311 62.3946 173.249 62.3811 173.186 62.3666L98.0677 44.8131C97.2519 44.6224 96.7098 44.1072 96.807 43.6146C96.848 43.4696 96.9281 43.3388 97.0385 43.2365C97.1488 43.1343 97.2852 43.0646 97.4325 43.0351C97.7951 42.9349 98.1768 42.9263 98.5435 43.0103L174.128 58.853C175.83 59.2095 177.012 60.2578 176.818 61.2393C176.717 61.7529 176.266 62.1511 175.549 62.3606C175.179 62.4642 174.796 62.515 174.412 62.5115Z" fill="#3F3D56"/>
<path d="M158.499 60.083C158.888 60.3123 159.322 60.4533 159.771 60.4961C160.22 60.5388 160.673 60.4822 161.098 60.3303C161.522 60.1784 161.909 59.9349 162.23 59.6169C162.551 59.2989 162.798 58.9142 162.955 58.4898L173.913 58.7191L170.877 53.8821L160.936 54.4059C160.209 54.189 159.427 54.2476 158.739 54.5705C158.051 54.8935 157.506 55.4583 157.205 56.1581C156.905 56.8579 156.871 57.6439 157.109 58.3673C157.348 59.0907 157.842 59.7012 158.499 60.083Z" fill="#FFB8B8"/>
<path d="M163.259 58.326L163.202 54.9548C163.198 54.6069 163.324 54.27 163.555 54.0104C163.786 53.7508 164.105 53.5874 164.45 53.5524L184.143 51.645L200.55 46.2459C201.045 46.0829 201.568 46.0204 202.087 46.0619C202.607 46.1034 203.113 46.2482 203.576 46.4878C204.039 46.7274 204.451 47.057 204.786 47.4575C205.121 47.858 205.374 48.3214 205.529 48.8207C205.684 49.3201 205.739 49.8454 205.69 50.3661C205.641 50.8869 205.489 51.3927 205.244 51.8541C204.998 52.3155 204.664 52.7234 204.26 53.054C203.856 53.3846 203.391 53.6312 202.891 53.7797L184.731 59.1763L164.674 59.6876C164.371 59.695 164.074 59.6021 163.828 59.4234C163.583 59.2446 163.403 58.9899 163.316 58.6983C163.28 58.5774 163.261 58.4521 163.259 58.326Z" fill="#3F3D56"/>
<path d="M192.402 145.239L188.641 145.238L186.852 130.681L192.402 130.681L192.402 145.239Z" fill="#FFB8B8"/>
<path d="M193.361 148.897L181.235 148.897V148.743C181.235 148.121 181.357 147.505 181.594 146.93C181.832 146.355 182.179 145.833 182.618 145.393C183.056 144.954 183.576 144.605 184.149 144.367C184.721 144.129 185.335 144.006 185.955 144.006H185.955L193.361 144.006L193.361 148.897Z" fill="#2F2E41"/>
<path d="M203.444 145.239L199.683 145.238L197.895 130.681L203.445 130.681L203.444 145.239Z" fill="#FFB8B8"/>
<path d="M204.403 148.897L192.278 148.897V148.743C192.278 148.121 192.4 147.505 192.637 146.93C192.874 146.355 193.222 145.833 193.66 145.393C194.098 144.954 194.619 144.605 195.191 144.367C195.764 144.129 196.377 144.006 196.997 144.006H196.998L204.403 144.006L204.403 148.897Z" fill="#2F2E41"/>
<path d="M205.968 86.4058L205.07 139.878C205.067 140.047 205.029 140.214 204.959 140.368C204.889 140.522 204.788 140.66 204.663 140.773C204.537 140.886 204.39 140.972 204.23 141.026C204.069 141.079 203.9 141.099 203.732 141.083L199.332 140.682C199.043 140.655 198.773 140.527 198.569 140.32C198.366 140.113 198.242 139.841 198.219 139.551L195.643 106.196C195.637 106.118 195.601 106.045 195.543 105.992C195.485 105.939 195.41 105.911 195.331 105.912C195.253 105.914 195.178 105.946 195.122 106.001C195.067 106.056 195.034 106.13 195.031 106.209L193.743 140.326C193.731 140.645 193.597 140.946 193.368 141.167C193.139 141.388 192.834 141.511 192.517 141.511H187.798C187.485 141.511 187.185 141.392 186.957 141.177C186.73 140.962 186.592 140.668 186.573 140.355L183.269 86.098L202.9 81.1724L205.968 86.4058Z" fill="#2F2E41"/>
<path d="M191.729 36.1964C195.89 36.1964 199.262 32.8111 199.262 28.6352C199.262 24.4593 195.89 21.0741 191.729 21.0741C187.568 21.0741 184.195 24.4593 184.195 28.6352C184.195 32.8111 187.568 36.1964 191.729 36.1964Z" fill="#FFB8B8"/>
<path d="M182.597 87.9965C182.467 87.8699 182.363 87.7187 182.291 87.5514C182.219 87.3841 182.181 87.2042 182.179 87.0221L181.671 50.5595C181.64 48.7046 182.196 46.8878 183.259 45.37C184.321 43.8521 185.836 42.7114 187.585 42.1116C188.291 38.8978 192.047 38.4952 194.237 38.5433C194.784 38.5552 195.32 38.6991 195.799 38.9629C196.278 39.2267 196.687 39.6027 196.991 40.0589L198.561 42.4222L202.021 44.4578C203.622 45.3958 204.885 46.8201 205.628 48.5251C206.37 50.2302 206.554 52.1279 206.153 53.9446L205.62 56.3765C203.744 64.9838 203.923 73.9143 206.141 82.4392L207.213 86.5411C207.268 86.7547 207.273 86.9786 207.225 87.1942C207.177 87.4098 207.078 87.6107 206.937 87.7802C206.796 87.9498 206.617 88.083 206.414 88.1689C206.211 88.2547 205.991 88.2906 205.772 88.2736L204.527 88.1774C204.204 88.1529 203.899 88.0148 203.667 87.7874C203.436 87.5601 203.291 87.258 203.259 86.9343L203.053 84.8665C203.049 84.8286 203.032 84.7933 203.003 84.7677C202.975 84.7421 202.938 84.7279 202.9 84.7279C202.862 84.7279 202.826 84.7421 202.798 84.7677C202.769 84.7933 202.752 84.8286 202.748 84.8665L202.548 86.8685C202.515 87.2067 202.358 87.5207 202.109 87.7507C201.86 87.9807 201.535 88.1106 201.196 88.1158L183.58 88.3879C183.573 88.3879 183.566 88.3882 183.558 88.3882C183.199 88.3889 182.854 88.2482 182.597 87.9965Z" fill="#3F3D56"/>
<path d="M192.318 32.9936C192.349 34.0625 193.088 34.6808 193.996 35.2407C194.904 35.8005 195.965 36.0433 197.005 36.2775C197.144 36.3519 197.301 36.3889 197.459 36.385C197.617 36.3812 197.771 36.3365 197.907 36.2552C198.043 36.174 198.155 36.0591 198.234 35.9214C198.313 35.7838 198.355 35.6281 198.356 35.4695L199.309 31.8297C199.647 30.667 199.892 29.4794 200.043 28.278C200.273 25.9663 199.727 23.4795 198.119 21.8081C196.512 20.1367 193.724 19.5429 191.797 20.8307C189.511 17.9001 179.06 24.375 181.638 26.4129C182.097 26.7755 182.798 26.3167 183.38 26.2723C183.962 26.2278 184.615 26.3306 184.984 26.784C185.467 27.3764 185.257 28.2587 185.456 28.9977C185.538 29.2577 185.671 29.4988 185.847 29.707C186.022 29.9153 186.237 30.0865 186.479 30.211C186.721 30.3354 186.985 30.4106 187.256 30.4321C187.527 30.4536 187.8 30.4211 188.058 30.3363C188.54 30.0983 188.992 29.8062 189.408 29.4656C189.854 29.1671 190.419 28.9465 190.921 29.1348C191.584 29.3829 191.819 30.197 191.879 30.9042C191.98 31.6095 192.127 32.3075 192.318 32.9936Z" fill="#2F2E41"/>
<path d="M248.127 149H131.261C131.18 149 131.102 148.968 131.044 148.91C130.987 148.852 130.954 148.774 130.954 148.692C130.954 148.61 130.987 148.532 131.044 148.474C131.102 148.417 131.18 148.384 131.261 148.384H248.127C248.208 148.384 248.286 148.417 248.344 148.474C248.401 148.532 248.434 148.61 248.434 148.692C248.434 148.774 248.401 148.852 248.344 148.91C248.286 148.968 248.208 149 248.127 149Z" fill="#3F3D56"/>
<path opacity="0.2" d="M190.559 53.2582L189.332 68.3429L182.89 84.0434L192.399 68.6508L190.559 53.2582Z" fill="black"/>
<path d="M181.384 89.8902C181.736 89.6068 182.021 89.2495 182.22 88.8435C182.419 88.4375 182.527 87.9925 182.537 87.5401C182.546 87.0876 182.456 86.6386 182.274 86.2247C182.092 85.8107 181.821 85.442 181.482 85.1443L185.585 74.9434L180.002 76.0749L176.961 85.5885C176.501 86.1943 176.278 86.9486 176.334 87.7085C176.391 88.4683 176.724 89.1808 177.269 89.7111C177.814 90.2413 178.534 90.5524 179.293 90.5854C180.051 90.6184 180.795 90.371 181.384 89.8902Z" fill="#FFB8B8"/>
<path d="M181.085 85.3912L177.925 84.248C177.599 84.1284 177.33 83.8909 177.17 83.5821C177.01 83.2733 176.972 82.9156 177.061 82.5796L182.275 63.4253L183.07 46.114C183.094 45.5915 183.221 45.079 183.444 44.6062C183.667 44.1335 183.982 43.71 184.369 43.3604C184.757 43.0107 185.21 42.7419 185.702 42.5695C186.194 42.3972 186.715 42.3247 187.236 42.3564C187.756 42.388 188.265 42.5231 188.732 42.7539C189.2 42.9847 189.617 43.3064 189.96 43.7005C190.303 44.0946 190.564 44.5532 190.729 45.0495C190.893 45.5458 190.958 46.07 190.919 46.5916L189.499 65.547L182.856 84.5471C182.755 84.8341 182.563 85.08 182.309 85.2468C182.056 85.4137 181.755 85.4922 181.452 85.4704C181.327 85.4608 181.203 85.4342 181.085 85.3912Z" fill="#3F3D56"/>
<path d="M133.199 57.4143H42.406C42.3247 57.4143 42.2466 57.3818 42.1891 57.3241C42.1316 57.2664 42.0993 57.1881 42.0993 57.1064C42.0993 57.0248 42.1316 56.9465 42.1891 56.8888C42.2466 56.831 42.3247 56.7986 42.406 56.7986H133.199C133.281 56.7986 133.359 56.831 133.416 56.8888C133.474 56.9465 133.506 57.0248 133.506 57.1064C133.506 57.1881 133.474 57.2664 133.416 57.3241C133.359 57.3818 133.281 57.4143 133.199 57.4143Z" fill="#3F3D56"/>
</g>
<defs>
<clipPath id="clip0_35_41">
<rect width="254" height="149" fill="white"/>
</clipPath>
</defs>
</svg>
