<svg width="45" height="44" viewBox="0 0 45 44" fill="none" xmlns="http://www.w3.org/2000/svg">
<g clip-path="url(#clip0_23_298)">
<path d="M22.5027 0L0 16.9851V44H45V16.9851L22.5027 0ZM16.2774 12.1213C16.9394 10.901 17.8479 9.98288 19.0021 9.37228C20.1537 8.75623 21.469 8.4482 22.9545 8.4482C24.2086 8.4482 25.3273 8.69708 26.3061 9.18847C27.2848 9.68622 28.0287 10.3851 28.5471 11.2978C29.0601 12.21 29.3206 13.2051 29.3206 14.2834C29.3206 15.5688 28.9282 16.7299 28.1462 17.7727C27.1616 19.0822 25.9051 19.7396 24.367 19.7396C23.9539 19.7396 23.6434 19.6686 23.4324 19.5203C23.2245 19.372 23.0809 19.1591 23.0134 18.8747C22.4275 19.4493 21.7449 19.7396 20.9776 19.7396C20.1483 19.7396 19.4629 19.4493 18.918 18.8747C18.3731 18.2941 18.0976 17.5238 18.0976 16.5702C18.0976 15.3795 18.4257 14.3012 19.0849 13.3238C19.8846 12.1331 20.9043 11.5344 22.1521 11.5344C23.04 11.5344 23.6961 11.8779 24.1182 12.5654L24.3085 11.7241H26.2863L25.1554 17.1507C25.0852 17.4943 25.0501 17.7136 25.0501 17.8141C25.0501 17.9447 25.0767 18.0334 25.1347 18.0985C25.1905 18.1635 25.2607 18.1931 25.34 18.1931C25.583 18.1931 25.8907 18.0512 26.2683 17.7545C26.7781 17.3755 27.1886 16.8541 27.5018 16.2144C27.8181 15.5688 27.9765 14.899 27.9765 14.2061C27.9765 12.968 27.5341 11.9311 26.6463 11.0899C25.7557 10.2604 24.5137 9.84001 22.923 9.84001C21.5694 9.84001 20.4242 10.1185 19.4837 10.6813C18.5463 11.2323 17.8403 12.0203 17.3565 13.0331C16.8818 14.04 16.6446 15.0947 16.6446 16.1907C16.6446 17.2513 16.9141 18.2227 17.4415 19.0935C17.9775 19.9703 18.7218 20.6041 19.6798 21.0072C20.6406 21.4044 21.7395 21.6055 22.9756 21.6055C24.1654 21.6055 25.1905 21.4395 26.0518 21.1019C26.91 20.7643 27.6016 20.2665 28.1259 19.5913H29.7167C29.219 20.6159 28.4539 21.4158 27.4225 22.0023C26.239 22.6656 24.7945 22.9978 23.0985 22.9978C21.4488 22.9978 20.0282 22.7193 18.833 22.1565C17.6319 21.5937 16.7441 20.7643 16.1581 19.6682C15.5754 18.5721 15.2851 17.3755 15.2851 16.0838C15.2842 14.6688 15.6123 13.3475 16.2774 12.1213ZM1.58805 17.5243L18.1908 28.7807L1.58805 41.7724V17.5243ZM2.8476 42.6373L22.5027 27.2574L42.1524 42.6373H2.8476ZM43.4124 41.7724L26.8096 28.7802L43.4124 17.5238V41.7724ZM23.3145 13.3593C23.5782 13.6614 23.71 14.0996 23.71 14.6683C23.71 15.1779 23.6106 15.7289 23.4198 16.3154C23.2294 16.9078 23.0008 17.3582 22.7372 17.6662C22.5527 17.8796 22.3623 18.0393 22.1719 18.1403C21.9226 18.2823 21.6589 18.3537 21.375 18.3537C20.9943 18.3537 20.6779 18.1995 20.4169 17.8974C20.1622 17.5953 20.0363 17.1275 20.0363 16.4874C20.0363 16.0074 20.1271 15.4564 20.3116 14.8344C20.4961 14.2124 20.7715 13.7383 21.1351 13.4007C21.501 13.0631 21.8965 12.8975 22.3245 12.8975C22.7227 12.8975 23.0535 13.0513 23.3145 13.3593Z" fill="#F9F9F9"/>
</g>
<defs>
<clipPath id="clip0_23_298">
<rect width="45" height="44" fill="white"/>
</clipPath>
</defs>
</svg>
