<svg width="150" height="49" viewBox="0 0 150 49" fill="none" xmlns="http://www.w3.org/2000/svg">
<path d="M19.2344 11.9375H22.3984L26.5 24.1367L30.5898 11.9375H33.7539L27.7773 29H25.2109L19.2344 11.9375ZM17.4062 11.9375H20.6289L21.2266 24.582V29H17.4062V11.9375ZM32.3594 11.9375H35.5938V29H31.7617V24.582L32.3594 11.9375ZM45.7305 15.1836L41.3242 29H37.2461L43.5625 11.9375H46.1406L45.7305 15.1836ZM49.3867 29L44.9688 15.1836L44.5117 11.9375H47.125L53.4648 29H49.3867ZM49.1992 22.6484V25.6016H40.3047V22.6484H49.1992ZM54.8828 11.9375H61.4336C62.7383 11.9375 63.8672 12.1328 64.8203 12.5234C65.7812 12.9141 66.5195 13.4922 67.0352 14.2578C67.5508 15.0234 67.8086 15.9688 67.8086 17.0938C67.8086 18.0312 67.6562 18.8281 67.3516 19.4844C67.0469 20.1406 66.6172 20.6836 66.0625 21.1133C65.5156 21.543 64.875 21.8906 64.1406 22.1562L62.8984 22.8359H57.3203L57.2969 19.8711H61.4453C62.0156 19.8711 62.4883 19.7695 62.8633 19.5664C63.2383 19.3633 63.5195 19.0781 63.707 18.7109C63.9023 18.3359 64 17.8984 64 17.3984C64 16.8828 63.9023 16.4375 63.707 16.0625C63.5117 15.6875 63.2227 15.4023 62.8398 15.207C62.4648 15.0039 61.9961 14.9023 61.4336 14.9023H58.7031V29H54.8828V11.9375ZM64.3281 29L60.4961 21.418L64.5273 21.4062L68.418 28.8242V29H64.3281ZM80.207 23.2812H84.0039C83.9414 24.4531 83.6211 25.4883 83.043 26.3867C82.4727 27.2773 81.6797 27.9766 80.6641 28.4844C79.6484 28.9844 78.4414 29.2344 77.043 29.2344C75.9258 29.2344 74.9258 29.043 74.043 28.6602C73.1602 28.2773 72.4102 27.7305 71.793 27.0195C71.1836 26.3008 70.7148 25.4375 70.3867 24.4297C70.0664 23.4141 69.9062 22.2695 69.9062 20.9961V19.9531C69.9062 18.6797 70.0742 17.5352 70.4102 16.5195C70.7461 15.5039 71.2266 14.6367 71.8516 13.918C72.4766 13.1992 73.2266 12.6484 74.1016 12.2656C74.9766 11.8828 75.9531 11.6914 77.0312 11.6914C78.4844 11.6914 79.7109 11.9531 80.7109 12.4766C81.7109 13 82.4844 13.7188 83.0312 14.6328C83.5859 15.5469 83.918 16.5898 84.0273 17.7617H80.2188C80.1875 17.0977 80.0625 16.5391 79.8438 16.0859C79.625 15.625 79.2891 15.2773 78.8359 15.043C78.3828 14.8086 77.7812 14.6914 77.0312 14.6914C76.4844 14.6914 76.0039 14.793 75.5898 14.9961C75.1836 15.1992 74.8438 15.5156 74.5703 15.9453C74.3047 16.375 74.1055 16.9219 73.9727 17.5859C73.8398 18.2422 73.7734 19.0234 73.7734 19.9297V20.9961C73.7734 21.8945 73.832 22.6719 73.9492 23.3281C74.0664 23.9844 74.2539 24.5273 74.5117 24.957C74.7773 25.3867 75.1172 25.707 75.5312 25.918C75.9453 26.1289 76.4492 26.2344 77.043 26.2344C77.7227 26.2344 78.2891 26.1289 78.7422 25.918C79.1953 25.6992 79.543 25.3711 79.7852 24.9336C80.0273 24.4961 80.168 23.9453 80.207 23.2812ZM100.352 20.0938V20.8555C100.352 22.1523 100.172 23.3164 99.8125 24.3477C99.4609 25.3789 98.957 26.2578 98.3008 26.9844C97.6523 27.7109 96.8789 28.2695 95.9805 28.6602C95.0898 29.043 94.1016 29.2344 93.0156 29.2344C91.9297 29.2344 90.9375 29.043 90.0391 28.6602C89.1406 28.2695 88.3594 27.7109 87.6953 26.9844C87.0391 26.2578 86.5312 25.3789 86.1719 24.3477C85.8125 23.3164 85.6328 22.1523 85.6328 20.8555V20.0938C85.6328 18.7969 85.8125 17.6328 86.1719 16.6016C86.5312 15.5625 87.0352 14.6797 87.6836 13.9531C88.3398 13.2266 89.1172 12.6719 90.0156 12.2891C90.9141 11.8984 91.9062 11.7031 92.9922 11.7031C94.0781 11.7031 95.0703 11.8984 95.9688 12.2891C96.8672 12.6719 97.6406 13.2266 98.2891 13.9531C98.9453 14.6797 99.4531 15.5625 99.8125 16.6016C100.172 17.6328 100.352 18.7969 100.352 20.0938ZM96.4961 20.8555V20.0703C96.4961 19.2031 96.418 18.4375 96.2617 17.7734C96.1055 17.1016 95.8789 16.5391 95.582 16.0859C95.2852 15.6328 94.918 15.293 94.4805 15.0664C94.043 14.832 93.5469 14.7148 92.9922 14.7148C92.4141 14.7148 91.9102 14.832 91.4805 15.0664C91.0508 15.293 90.6875 15.6328 90.3906 16.0859C90.1016 16.5391 89.8789 17.1016 89.7227 17.7734C89.5742 18.4375 89.5 19.2031 89.5 20.0703V20.8555C89.5 21.7148 89.5742 22.4805 89.7227 23.1523C89.8789 23.8164 90.1055 24.3789 90.4023 24.8398C90.6992 25.3008 91.0625 25.6484 91.4922 25.8828C91.9297 26.1172 92.4375 26.2344 93.0156 26.2344C93.5703 26.2344 94.0625 26.1172 94.4922 25.8828C94.9297 25.6484 95.2969 25.3008 95.5938 24.8398C95.8906 24.3789 96.1133 23.8164 96.2617 23.1523C96.418 22.4805 96.4961 21.7148 96.4961 20.8555ZM109.551 23.7031V11.9375H113.348V23.7031C113.348 24.8438 113.09 25.8281 112.574 26.6562C112.066 27.4766 111.375 28.1133 110.5 28.5664C109.633 29.0117 108.652 29.2344 107.559 29.2344C106.434 29.2344 105.434 29.0469 104.559 28.6719C103.684 28.2891 102.996 27.707 102.496 26.9258C102.004 26.1367 101.758 25.1328 101.758 23.9141H105.578C105.578 24.5156 105.652 24.9922 105.801 25.3438C105.957 25.6875 106.184 25.9297 106.48 26.0703C106.777 26.2109 107.137 26.2812 107.559 26.2812C107.965 26.2812 108.316 26.1836 108.613 25.9883C108.91 25.7852 109.141 25.4922 109.305 25.1094C109.469 24.7188 109.551 24.25 109.551 23.7031ZM116.148 11.9375H122.699C124.004 11.9375 125.133 12.1328 126.086 12.5234C127.047 12.9141 127.785 13.4922 128.301 14.2578C128.816 15.0234 129.074 15.9688 129.074 17.0938C129.074 18.0312 128.922 18.8281 128.617 19.4844C128.312 20.1406 127.883 20.6836 127.328 21.1133C126.781 21.543 126.141 21.8906 125.406 22.1562L124.164 22.8359H118.586L118.562 19.8711H122.711C123.281 19.8711 123.754 19.7695 124.129 19.5664C124.504 19.3633 124.785 19.0781 124.973 18.7109C125.168 18.3359 125.266 17.8984 125.266 17.3984C125.266 16.8828 125.168 16.4375 124.973 16.0625C124.777 15.6875 124.488 15.4023 124.105 15.207C123.73 15.0039 123.262 14.9023 122.699 14.9023H119.969V29H116.148V11.9375ZM125.594 29L121.762 21.418L125.793 21.4062L129.684 28.8242V29H125.594Z" fill="white"/>
<path d="M31.749 42H30.2646L30.2744 41.2334H31.749C32.2568 41.2334 32.68 41.1276 33.0186 40.916C33.3571 40.7012 33.611 40.4017 33.7803 40.0176C33.9528 39.6302 34.0391 39.1777 34.0391 38.6602V38.2256C34.0391 37.8187 33.9902 37.4574 33.8926 37.1416C33.7949 36.8226 33.6517 36.554 33.4629 36.3359C33.2741 36.1146 33.043 35.9469 32.7695 35.833C32.4993 35.7191 32.1885 35.6621 31.8369 35.6621H30.2354V34.8906H31.8369C32.3024 34.8906 32.7272 34.9688 33.1113 35.125C33.4954 35.278 33.8258 35.501 34.1025 35.7939C34.3825 36.0837 34.5973 36.4352 34.7471 36.8486C34.8968 37.2588 34.9717 37.721 34.9717 38.2354V38.6602C34.9717 39.1745 34.8968 39.6383 34.7471 40.0518C34.5973 40.4619 34.3809 40.8118 34.0977 41.1016C33.8177 41.3913 33.4792 41.6143 33.082 41.7705C32.6882 41.9235 32.2438 42 31.749 42ZM30.7676 34.8906V42H29.8252V34.8906H30.7676ZM40.9043 41.2334V42H37.1396V41.2334H40.9043ZM37.3301 34.8906V42H36.3877V34.8906H37.3301ZM40.4062 37.9473V38.7139H37.1396V37.9473H40.4062ZM40.8555 34.8906V35.6621H37.1396V34.8906H40.8555ZM44.3662 40.9209L46.4609 34.8906H47.4814L44.8496 42H44.1221L44.3662 40.9209ZM42.4082 34.8906L44.4834 40.9209L44.7422 42H44.0146L41.3877 34.8906H42.4082ZM51.8613 34.8906V42H50.9189V34.8906H51.8613ZM54.8398 38.0889V38.8604H51.6562V38.0889H54.8398ZM55.3232 34.8906V35.6621H51.6562V34.8906H55.3232ZM60.5137 34.8906H61.4512V39.7002C61.4512 40.234 61.3324 40.6784 61.0947 41.0332C60.8571 41.388 60.5413 41.6549 60.1475 41.834C59.7568 42.0098 59.332 42.0977 58.873 42.0977C58.3913 42.0977 57.9551 42.0098 57.5645 41.834C57.1771 41.6549 56.8695 41.388 56.6416 41.0332C56.417 40.6784 56.3047 40.234 56.3047 39.7002V34.8906H57.2373V39.7002C57.2373 40.0713 57.3057 40.3773 57.4424 40.6182C57.5791 40.859 57.7695 41.0381 58.0137 41.1553C58.2611 41.2725 58.5475 41.3311 58.873 41.3311C59.2018 41.3311 59.4883 41.2725 59.7324 41.1553C59.9798 41.0381 60.1719 40.859 60.3086 40.6182C60.4453 40.3773 60.5137 40.0713 60.5137 39.7002V34.8906ZM67.2422 41.2334V42H63.6875V41.2334H67.2422ZM63.873 34.8906V42H62.9307V34.8906H63.873ZM72.6328 41.2334V42H69.0781V41.2334H72.6328ZM69.2637 34.8906V42H68.3213V34.8906H69.2637ZM79.9814 40.2031C79.9814 40.0371 79.9554 39.8906 79.9033 39.7637C79.8545 39.6335 79.7666 39.5163 79.6396 39.4121C79.516 39.3079 79.3434 39.2087 79.1221 39.1143C78.904 39.0199 78.6273 38.9238 78.292 38.8262C77.9404 38.722 77.623 38.6064 77.3398 38.4795C77.0566 38.3493 76.8141 38.2012 76.6123 38.0352C76.4105 37.8691 76.2559 37.6787 76.1484 37.4639C76.041 37.249 75.9873 37.0033 75.9873 36.7266C75.9873 36.4499 76.0443 36.1943 76.1582 35.96C76.2721 35.7256 76.4349 35.5221 76.6465 35.3496C76.8613 35.1738 77.1169 35.0371 77.4131 34.9395C77.7093 34.8418 78.0397 34.793 78.4043 34.793C78.9382 34.793 79.3906 34.8955 79.7617 35.1006C80.1361 35.3024 80.4209 35.5677 80.6162 35.8965C80.8115 36.222 80.9092 36.5703 80.9092 36.9414H79.9717C79.9717 36.6745 79.9147 36.4385 79.8008 36.2334C79.6868 36.0251 79.5143 35.8623 79.2832 35.7451C79.0521 35.6247 78.7591 35.5645 78.4043 35.5645C78.069 35.5645 77.7923 35.6149 77.5742 35.7158C77.3561 35.8167 77.1934 35.9535 77.0859 36.126C76.9818 36.2985 76.9297 36.4954 76.9297 36.7168C76.9297 36.8665 76.9606 37.0033 77.0225 37.127C77.0876 37.2474 77.1868 37.3597 77.3203 37.4639C77.457 37.568 77.6296 37.6641 77.8379 37.752C78.0495 37.8398 78.3018 37.9245 78.5947 38.0059C78.9984 38.1198 79.3467 38.2467 79.6396 38.3867C79.9326 38.5267 80.1735 38.6846 80.3623 38.8604C80.5544 39.0329 80.696 39.2298 80.7871 39.4512C80.8815 39.6693 80.9287 39.9167 80.9287 40.1934C80.9287 40.4831 80.8701 40.7451 80.7529 40.9795C80.6357 41.2139 80.4681 41.4141 80.25 41.5801C80.0319 41.7461 79.7699 41.8747 79.4639 41.9658C79.1611 42.0537 78.8226 42.0977 78.4482 42.0977C78.1195 42.0977 77.7956 42.0521 77.4766 41.9609C77.1608 41.8698 76.8727 41.7331 76.6123 41.5508C76.3551 41.3685 76.1484 41.1439 75.9922 40.877C75.8392 40.6068 75.7627 40.2943 75.7627 39.9395H76.7002C76.7002 40.1836 76.7474 40.3936 76.8418 40.5693C76.9362 40.7419 77.0648 40.8851 77.2275 40.999C77.3936 41.113 77.5807 41.1976 77.7891 41.2529C78.0007 41.305 78.2204 41.3311 78.4482 41.3311C78.777 41.3311 79.0553 41.2855 79.2832 41.1943C79.5111 41.1032 79.6836 40.973 79.8008 40.8037C79.9212 40.6344 79.9814 40.4342 79.9814 40.2031ZM84.7568 34.8906V42H83.8291V34.8906H84.7568ZM87.042 34.8906V35.6621H81.5488V34.8906H87.042ZM90.3379 35.5205L87.9844 42H87.0225L89.7324 34.8906H90.3525L90.3379 35.5205ZM92.3105 42L89.9521 35.5205L89.9375 34.8906H90.5576L93.2773 42H92.3105ZM92.1885 39.3682V40.1396H88.1943V39.3682H92.1885ZM98.4629 39.7393H99.4004C99.3516 40.1885 99.223 40.5905 99.0146 40.9453C98.8063 41.3001 98.5117 41.5817 98.1309 41.79C97.75 41.9951 97.2747 42.0977 96.7051 42.0977C96.2884 42.0977 95.9092 42.0195 95.5674 41.8633C95.2288 41.707 94.9375 41.4857 94.6934 41.1992C94.4492 40.9095 94.2604 40.5628 94.127 40.1592C93.9967 39.7523 93.9316 39.2998 93.9316 38.8018V38.0938C93.9316 37.5957 93.9967 37.1449 94.127 36.7412C94.2604 36.3343 94.4508 35.986 94.6982 35.6963C94.9489 35.4066 95.25 35.1836 95.6016 35.0273C95.9531 34.8711 96.3486 34.793 96.7881 34.793C97.3252 34.793 97.7793 34.8939 98.1504 35.0957C98.5215 35.2975 98.8096 35.5775 99.0146 35.9355C99.223 36.2904 99.3516 36.7021 99.4004 37.1709H98.4629C98.4173 36.8389 98.3327 36.554 98.209 36.3164C98.0853 36.0755 97.9095 35.89 97.6816 35.7598C97.4538 35.6296 97.1559 35.5645 96.7881 35.5645C96.4723 35.5645 96.194 35.6247 95.9531 35.7451C95.7155 35.8656 95.5153 36.0365 95.3525 36.2578C95.193 36.4792 95.0726 36.7445 94.9912 37.0537C94.9098 37.363 94.8691 37.7064 94.8691 38.084V38.8018C94.8691 39.1501 94.9049 39.4772 94.9766 39.7832C95.0514 40.0892 95.1637 40.3577 95.3135 40.5889C95.4632 40.82 95.6536 41.0023 95.8848 41.1357C96.1159 41.266 96.3893 41.3311 96.7051 41.3311C97.1055 41.3311 97.4245 41.2676 97.6621 41.1406C97.8997 41.0137 98.0788 40.8314 98.1992 40.5938C98.3229 40.3561 98.4108 40.0713 98.4629 39.7393ZM101.627 34.8906V42H100.685V34.8906H101.627ZM105.919 34.8906L102.965 38.2061L101.305 39.9297L101.148 38.9238L102.398 37.5469L104.786 34.8906H105.919ZM105.011 42L102.379 38.5332L102.94 37.7861L106.134 42H105.011Z" fill="white"/>
<path d="M9.875 5.04688L10.4844 6.82812C9.24479 7.21354 8.39062 7.90625 7.92188 8.90625C7.45312 9.89583 7.21875 11.0312 7.21875 12.3125V15.5469C7.21875 16.5885 7.00521 17.5365 6.57812 18.3906C6.16146 19.2344 5.49479 19.9062 4.57812 20.4062C3.67188 20.9062 2.47917 21.1562 1 21.1562V19.25C2.17708 19.25 3.02083 18.9167 3.53125 18.25C4.05208 17.5833 4.3125 16.6823 4.3125 15.5469V12.3125C4.3125 11.2188 4.47917 10.1979 4.8125 9.25C5.15625 8.29167 5.72917 7.45312 6.53125 6.73438C7.34375 6.00521 8.45833 5.44271 9.875 5.04688ZM10.4844 33.9219L9.875 35.7188C8.45833 35.3125 7.34375 34.75 6.53125 34.0312C5.72917 33.3125 5.15625 32.474 4.8125 31.5156C4.47917 30.5677 4.3125 29.5469 4.3125 28.4531V25.2344C4.3125 24.474 4.19792 23.8177 3.96875 23.2656C3.73958 22.7135 3.38021 22.2865 2.89062 21.9844C2.41146 21.6719 1.78125 21.5156 1 21.5156V19.6094C2.47917 19.6094 3.67188 19.8594 4.57812 20.3594C5.49479 20.8594 6.16146 21.5365 6.57812 22.3906C7.00521 23.2344 7.21875 24.1823 7.21875 25.2344V28.4531C7.21875 29.3073 7.31771 30.099 7.51562 30.8281C7.72396 31.5573 8.0625 32.1875 8.53125 32.7188C9.01042 33.2604 9.66146 33.6615 10.4844 33.9219Z" fill="white"/>
<path d="M134.312 7.82812L134.922 6.04688C136.349 6.44271 137.464 7.00521 138.266 7.73438C139.078 8.45312 139.651 9.29167 139.984 10.25C140.318 11.1979 140.484 12.2188 140.484 13.3125V16.5469C140.484 17.2969 140.599 17.9531 140.828 18.5156C141.057 19.0677 141.411 19.4948 141.891 19.7969C142.38 20.099 143.016 20.25 143.797 20.25V22.0156C142.328 22.0156 141.135 21.7812 140.219 21.3125C139.302 20.8333 138.63 20.1823 138.203 19.3594C137.786 18.526 137.578 17.5885 137.578 16.5469V13.3125C137.578 12.4583 137.479 11.6667 137.281 10.9375C137.083 10.1979 136.745 9.5625 136.266 9.03125C135.797 8.48958 135.146 8.08854 134.312 7.82812ZM134.922 36.7188L134.312 34.9219C135.135 34.6615 135.781 34.2604 136.25 33.7188C136.729 33.1875 137.068 32.5573 137.266 31.8281C137.474 31.099 137.578 30.3073 137.578 29.4531V26.2344C137.578 25.1823 137.786 24.2448 138.203 23.4219C138.63 22.599 139.302 21.9531 140.219 21.4844C141.135 21.0052 142.328 20.7656 143.797 20.7656V22.5156C142.63 22.5156 141.786 22.8542 141.266 23.5312C140.745 24.1979 140.484 25.099 140.484 26.2344V29.4531C140.484 30.5469 140.318 31.5677 139.984 32.5156C139.651 33.474 139.078 34.3125 138.266 35.0312C137.464 35.75 136.349 36.3125 134.922 36.7188Z" fill="white"/>
</svg>
