<svg width="58" height="58" viewBox="0 0 58 58" fill="none" xmlns="http://www.w3.org/2000/svg">
<path d="M23.8258 30.7296C23.8258 30.7296 22.3377 31.5955 24.8865 31.8882C27.9741 32.2407 29.5524 32.19 32.9544 31.547C32.9544 31.547 33.8512 32.1075 35.1 32.5933C27.4712 35.8616 17.8341 32.4038 23.8258 30.7296ZM22.8928 26.4634C22.8928 26.4634 21.2235 27.7 23.7741 27.9637C27.0729 28.304 29.677 28.3321 34.1865 27.4639C34.1865 27.4639 34.8086 28.0964 35.7887 28.4413C26.5667 31.1392 16.2948 28.6538 22.8928 26.4634Z" fill="#0074BD"/>
<path d="M30.7513 19.2264C32.6322 21.3915 30.2583 23.3381 30.2583 23.3381C30.2583 23.3381 35.0311 20.8745 32.8393 17.7882C30.7916 14.9113 29.2225 13.4826 37.7199 8.55444C37.7199 8.55444 24.3808 11.8849 30.7513 19.2264Z" fill="#EA2D2E"/>
<path d="M40.8411 33.885C40.8411 33.885 41.9431 34.7935 39.6276 35.4959C35.225 36.8294 21.3014 37.2318 17.434 35.5489C16.0447 34.944 18.6515 34.1048 19.4712 33.9285C20.3263 33.7432 20.8147 33.7772 20.8147 33.7772C19.2687 32.6883 10.8211 35.9155 16.5241 36.8412C32.0772 39.362 44.8748 35.7057 40.8411 33.885ZM24.5421 22.0431C24.5421 22.0431 17.4603 23.7255 22.0346 24.3372C23.9667 24.5955 27.8155 24.5362 31.4034 24.2353C34.3346 23.9892 37.2763 23.4632 37.2763 23.4632C37.2763 23.4632 36.2436 23.9063 35.4955 24.4165C28.3026 26.3083 14.4103 25.427 18.41 23.4931C21.7917 21.8568 24.5421 22.0431 24.5421 22.0431ZM37.2469 29.1435C44.558 25.3454 41.1773 21.6951 38.8179 22.1867C38.241 22.3072 37.9818 22.4115 37.9818 22.4115C37.9818 22.4115 38.1971 22.0743 38.6062 21.9298C43.2743 20.2895 46.8635 26.7696 37.101 29.3361C37.101 29.3361 37.2129 29.2346 37.2469 29.1435Z" fill="#0074BD"/>
<path d="M32.8398 0.594971C32.8398 0.594971 36.8885 4.64546 28.9991 10.8728C22.6726 15.8694 27.5563 18.7177 28.9964 21.9734C25.3034 18.6411 22.5946 15.7076 24.4117 12.978C27.0801 8.97144 34.4728 7.02799 32.8398 0.594971Z" fill="#EA2D2E"/>
<path d="M25.2613 39.4396C32.2774 39.8882 43.055 39.1899 43.3101 35.8699C43.3101 35.8699 42.8199 37.1282 37.5106 38.1269C31.5212 39.2543 24.133 39.1233 19.7522 38.4001C19.7522 38.4001 20.6494 39.1432 25.2613 39.4396Z" fill="#0074BD"/>
<path d="M42.9862 45.3946H42.7723V45.275H43.3478V45.3946H43.1348V45.9914H42.9857L42.9862 45.3946ZM44.1348 45.4245H44.1321L43.92 45.9914H43.8222L43.6115 45.4245H43.6092V45.9914H43.4678V45.275H43.6749L43.8702 45.782L44.066 45.275H44.2717V45.9914H44.1348V45.4245ZM24.1112 52.1262C23.4497 52.6999 22.75 53.0225 22.1216 53.0225C21.2271 53.0225 20.7418 52.4851 20.7418 51.6246C20.7418 50.6934 21.2611 50.0115 23.3418 50.0115H24.1108L24.1112 52.1262ZM25.9378 54.187V47.8084C25.9378 46.1776 25.0075 45.1019 22.7673 45.1019C21.4595 45.1019 20.3131 45.4254 19.3811 45.8368L19.6493 46.9665C20.3834 46.6969 21.3327 46.4467 22.2643 46.4467C23.5557 46.4467 24.1108 46.9665 24.1108 48.0422V48.8483H23.4655C20.3295 48.8483 18.9143 50.0649 18.9143 51.8947C18.9143 53.4711 19.8469 54.3669 21.6027 54.3669C22.731 54.3669 23.5743 53.9011 24.3614 53.2192L24.5045 54.1875L25.9378 54.187ZM32.0332 54.187H29.7554L27.0135 45.2655H29.0032L30.7051 50.7478L31.0835 52.3949C31.9426 50.0124 32.5516 47.5936 32.8561 45.2659H34.7914C34.2735 48.2026 33.34 51.4275 32.0332 54.187ZM40.7731 52.1262C40.1093 52.6999 39.4092 53.0225 38.783 53.0225C37.8876 53.0225 37.4028 52.4851 37.4028 51.6246C37.4028 50.6934 37.9234 50.0115 40.0019 50.0115H40.7726L40.7731 52.1262ZM42.6005 54.187V47.8084C42.6005 46.1776 41.6676 45.1019 39.4291 45.1019C38.12 45.1019 36.9741 45.4254 36.042 45.8368L36.3107 46.9665C37.0448 46.6969 37.9954 46.4467 38.9271 46.4467C40.2167 46.4467 40.7731 46.9665 40.7731 48.0422V48.8483H40.1278C36.9909 48.8483 35.5762 50.0649 35.5762 51.8947C35.5762 53.4711 36.5078 54.3669 38.2632 54.3669C39.392 54.3669 40.2339 53.9011 41.0232 53.2192L41.1673 54.1875L42.6005 54.187ZM16.9115 55.7032C16.3918 56.464 15.5499 57.0662 14.6291 57.4056L13.7279 56.343C14.4289 55.9832 15.0293 55.4028 15.3088 54.8617C15.5499 54.3801 15.65 53.7606 15.65 52.2785V42.0913H17.5912V52.1385C17.5912 54.1209 17.4335 54.9224 16.9115 55.7032Z" fill="#EA2D2E"/>
</svg>
