<svg width="553" height="384" viewBox="0 0 553 384" fill="none" xmlns="http://www.w3.org/2000/svg">
<g clip-path="url(#clip0_39_2)">
<path d="M56.8998 374.889C69.3024 384.014 85.3753 384.472 100.911 383.351C103.081 383.195 105.235 383.012 107.369 382.814C107.382 382.81 107.399 382.812 107.412 382.808C107.515 382.798 107.617 382.788 107.715 382.782C108.156 382.74 108.597 382.698 109.033 382.656L108.93 382.857L108.606 383.48C108.723 383.271 108.839 383.067 108.955 382.858C108.989 382.796 109.028 382.733 109.062 382.671C113.086 375.518 117.078 368.103 118.096 359.935C119.149 351.457 116.191 341.858 108.885 337.691C107.927 337.146 106.912 336.712 105.86 336.397C105.423 336.262 104.98 336.152 104.532 336.054C101.792 335.433 98.9396 335.568 96.2677 336.446C93.5958 337.324 91.2011 338.913 89.3297 341.049C87.4583 343.185 86.1779 345.792 85.6201 348.601C85.0622 351.411 85.2471 354.321 86.1557 357.033C79.9617 350.546 81.1171 340.024 83.2538 331.229C85.3946 322.435 87.9861 312.649 83.632 304.75C81.2116 300.354 76.9551 297.626 72.1784 296.527C72.0319 296.495 71.8855 296.462 71.7387 296.434C66.0474 295.257 60.1306 296.316 55.1703 299.399C46.0368 305.277 41.3456 316.422 39.8231 327.339C37.37 344.907 42.7987 364.514 56.8998 374.889Z" fill="#F2F2F2"/>
<path d="M60.9042 346.727C61.2642 350.602 62.1757 354.403 63.6098 358.009C64.9315 361.201 66.713 364.173 68.8951 366.826C73.4318 372.249 79.1773 376.48 85.6483 379.163C90.5429 381.21 95.6713 382.618 100.911 383.351C103.081 383.195 105.235 383.012 107.369 382.814C107.382 382.81 107.399 382.811 107.412 382.808C107.515 382.798 107.617 382.788 107.715 382.782C108.156 382.74 108.597 382.698 109.033 382.656L108.93 382.857L108.606 383.48C108.723 383.271 108.839 383.067 108.955 382.858C108.989 382.796 109.028 382.733 109.062 382.671C105.133 378.673 102.2 373.773 100.508 368.379C98.816 362.986 98.4144 357.256 99.337 351.672C100.302 346.127 102.538 340.893 105.86 336.397C105.423 336.262 104.98 336.152 104.532 336.054C103.27 337.817 102.162 339.691 101.222 341.653C97.8513 348.65 96.7758 356.571 98.1551 364.241C99.4375 371.182 102.632 377.605 107.364 382.757C106.95 382.727 106.532 382.693 106.122 382.654C98.3671 381.983 90.6277 380.281 83.5937 376.793C77.5811 373.884 72.3612 369.51 68.3937 364.056C64.1337 358.056 62.2564 350.839 61.934 343.503C61.6858 335.6 62.4969 327.7 64.3447 320.022C66.1366 312.192 68.86 304.616 72.454 297.462C72.5343 297.3 72.5505 297.112 72.4993 296.938C72.448 296.764 72.3331 296.617 72.1784 296.527C72.0495 296.438 71.8915 296.405 71.7387 296.434C71.664 296.455 71.5947 296.492 71.5359 296.543C71.4772 296.595 71.4306 296.659 71.3996 296.731C70.9562 297.615 70.5211 298.499 70.1025 299.393C66.6165 306.842 64.0499 314.703 62.4619 322.798C60.9203 330.607 60.0974 338.775 60.9042 346.727Z" fill="white"/>
<path d="M529.928 122.053C530.297 122.053 530.663 121.982 531.007 121.845C531.563 121.627 532.042 121.241 532.378 120.738C532.714 120.236 532.893 119.641 532.891 119.033V87.5131C532.892 86.4462 533.307 85.4234 534.046 84.6689C534.785 83.9145 535.786 83.4901 536.831 83.4889H543.151C545.762 83.4859 548.266 82.4252 550.112 80.5395C551.958 78.6538 552.997 76.0971 553 73.4303V10.0586C552.997 7.39179 551.958 4.83509 550.112 2.94939C548.266 1.06369 545.762 0.0029888 543.151 0H320.223C317.612 0.00299234 315.108 1.06369 313.262 2.94939C311.415 4.83509 310.377 7.39179 310.374 10.0586V73.4303C310.377 76.0971 311.415 78.6538 313.262 80.5395C315.108 82.4252 317.612 83.4859 320.223 83.4889H492.292C492.838 83.4895 493.378 83.6058 493.878 83.8304C494.378 84.055 494.827 84.3831 495.196 84.7938L527.758 121.072C528.033 121.38 528.368 121.627 528.742 121.796C529.115 121.965 529.519 122.053 529.928 122.053ZM543.151 1.34031C545.414 1.34292 547.584 2.26229 549.184 3.89672C550.785 5.53115 551.685 7.74715 551.688 10.0586V73.4303C551.685 75.7417 550.785 77.9577 549.184 79.5922C547.584 81.2266 545.414 82.146 543.151 82.1486H536.831C535.438 82.1502 534.103 82.7159 533.118 83.7216C532.134 84.7273 531.58 86.0908 531.578 87.5131V119.033C531.578 119.371 531.478 119.701 531.291 119.979C531.105 120.258 530.84 120.473 530.531 120.596C530.223 120.718 529.886 120.743 529.563 120.666C529.241 120.589 528.949 120.415 528.726 120.166L496.164 83.8881C495.671 83.3405 495.073 82.9032 494.406 82.6038C493.74 82.3044 493.02 82.1494 492.292 82.1486H320.223C317.96 82.146 315.79 81.2266 314.189 79.5922C312.589 77.9577 311.689 75.7417 311.686 73.4303V10.0586C311.689 7.74715 312.589 5.53115 314.189 3.89672C315.79 2.26229 317.96 1.34293 320.223 1.34031H543.151Z" fill="#CCCCCC"/>
<path d="M528.841 28.542C524.081 28.542 520.223 24.6014 520.223 19.7404C520.223 14.8794 524.081 10.9387 528.841 10.9387C533.601 10.9387 537.46 14.8794 537.46 19.7404C537.46 24.6014 533.601 28.542 528.841 28.542Z" fill="#CCCCCC"/>
<path d="M330.278 68.4429H533.096C533.7 68.4436 534.298 68.3227 534.857 68.0872C535.415 67.8516 535.922 67.5059 536.35 67.07C536.777 66.634 537.116 66.1163 537.348 65.5464C537.579 64.9765 537.698 64.3656 537.698 63.7487C537.698 63.1317 537.579 62.5209 537.348 61.951C537.116 61.3811 536.777 60.8633 536.35 60.4274C535.922 59.9914 535.415 59.6457 534.857 59.4102C534.298 59.1746 533.7 59.0537 533.096 59.0544H330.278C329.674 59.0537 329.075 59.1746 328.517 59.4102C327.959 59.6457 327.451 59.9914 327.024 60.4274C326.597 60.8633 326.257 61.3811 326.026 61.951C325.795 62.5209 325.676 63.1317 325.676 63.7487C325.676 64.3656 325.795 64.9765 326.026 65.5464C326.257 66.1163 326.597 66.634 327.024 67.07C327.451 67.5059 327.959 67.8516 328.517 68.0872C329.075 68.3227 329.674 68.4436 330.278 68.4429Z" fill="#CCCCCC"/>
<path d="M396.352 48.4924H533.096C533.7 48.4932 534.298 48.3723 534.857 48.1367C535.415 47.9011 535.922 47.5555 536.35 47.1195C536.777 46.6835 537.116 46.1658 537.348 45.5959C537.579 45.026 537.698 44.4151 537.698 43.7982C537.698 43.1813 537.579 42.5704 537.348 42.0005C537.116 41.4306 536.777 40.9129 536.35 40.4769C535.922 40.0409 535.415 39.6953 534.857 39.4597C534.298 39.2241 533.7 39.1033 533.096 39.104H396.352C395.748 39.1033 395.149 39.2241 394.591 39.4597C394.033 39.6953 393.525 40.0409 393.098 40.4769C392.671 40.9129 392.331 41.4306 392.1 42.0005C391.869 42.5704 391.75 43.1813 391.75 43.7982C391.75 44.4151 391.869 45.026 392.1 45.5959C392.331 46.1658 392.671 46.6835 393.098 47.1195C393.525 47.5555 394.033 47.9011 394.591 48.1367C395.149 48.3723 395.748 48.4932 396.352 48.4924Z" fill="#CCCCCC"/>
<path d="M529.928 345.615C530.297 345.614 530.663 345.544 531.007 345.407C531.563 345.188 532.041 344.802 532.378 344.3C532.714 343.798 532.893 343.203 532.891 342.594V311.075C532.892 310.008 533.307 308.985 534.046 308.231C534.785 307.476 535.786 307.052 536.831 307.051H543.151C545.762 307.048 548.266 305.987 550.112 304.101C551.958 302.216 552.997 299.659 553 296.992V233.62C552.997 230.954 551.958 228.397 550.112 226.511C548.266 224.625 545.762 223.565 543.151 223.562H320.223C317.612 223.565 315.108 224.625 313.262 226.511C311.415 228.397 310.377 230.954 310.374 233.62V296.992C310.377 299.659 311.415 302.216 313.262 304.101C315.108 305.987 317.612 307.048 320.223 307.051H492.292C492.838 307.051 493.378 307.168 493.878 307.392C494.378 307.617 494.827 307.945 495.196 308.356L527.758 344.633C528.033 344.942 528.368 345.189 528.742 345.358C529.115 345.527 529.519 345.614 529.928 345.615ZM543.151 224.902C545.414 224.905 547.584 225.824 549.184 227.458C550.785 229.093 551.685 231.309 551.688 233.62V296.992C551.685 299.304 550.785 301.52 549.184 303.154C547.584 304.788 545.414 305.708 543.151 305.71H536.831C535.438 305.712 534.103 306.278 533.118 307.283C532.134 308.289 531.58 309.653 531.578 311.075V342.594C531.578 342.932 531.478 343.262 531.291 343.541C531.105 343.82 530.84 344.035 530.531 344.157C530.223 344.28 529.886 344.304 529.563 344.228C529.241 344.151 528.949 343.977 528.726 343.728L496.164 307.45C495.671 306.902 495.073 306.465 494.406 306.166C493.74 305.866 493.02 305.711 492.292 305.71H320.223C317.96 305.708 315.79 304.788 314.189 303.154C312.589 301.52 311.689 299.304 311.686 296.992V233.62C311.689 231.309 312.589 229.093 314.189 227.458C315.79 225.824 317.96 224.905 320.223 224.902L543.151 224.902Z" fill="#CCCCCC"/>
<path d="M200.723 229.433C201.132 229.433 201.536 229.345 201.91 229.176C202.283 229.007 202.618 228.761 202.893 228.452L235.455 192.174C235.825 191.763 236.274 191.435 236.773 191.211C237.273 190.986 237.813 190.87 238.36 190.869H410.428C413.04 190.866 415.543 189.805 417.389 187.92C419.236 186.034 420.274 183.477 420.277 180.81V117.439C420.274 114.772 419.236 112.215 417.389 110.33C415.543 108.444 413.04 107.383 410.428 107.38H187.5C184.889 107.383 182.386 108.444 180.539 110.33C178.693 112.215 177.654 114.772 177.651 117.439V180.81C177.654 183.477 178.693 186.034 180.539 187.92C182.386 189.805 184.889 190.866 187.5 190.869H193.82C194.865 190.87 195.867 191.295 196.605 192.049C197.344 192.803 197.76 193.826 197.761 194.893V226.413C197.758 227.021 197.937 227.616 198.273 228.118C198.61 228.621 199.088 229.007 199.644 229.225C199.988 229.362 200.354 229.433 200.723 229.433ZM410.428 108.72C412.692 108.723 414.861 109.642 416.462 111.277C418.062 112.911 418.962 115.127 418.965 117.439V180.81C418.962 183.122 418.062 185.338 416.462 186.972C414.861 188.607 412.692 189.526 410.428 189.529H238.36C237.632 189.529 236.912 189.685 236.245 189.984C235.579 190.283 234.98 190.721 234.488 191.268L201.926 227.546C201.702 227.795 201.41 227.969 201.088 228.046C200.766 228.123 200.428 228.098 200.12 227.976C199.812 227.853 199.547 227.638 199.36 227.36C199.173 227.081 199.073 226.751 199.073 226.413V194.893C199.072 193.471 198.518 192.107 197.533 191.102C196.548 190.096 195.213 189.53 193.82 189.529H187.5C185.237 189.526 183.067 188.607 181.467 186.972C179.866 185.338 178.966 183.122 178.964 180.81V117.439C178.966 115.127 179.866 112.911 181.467 111.277C183.067 109.642 185.237 108.723 187.5 108.72L410.428 108.72Z" fill="#3F3D56"/>
<path d="M528.841 252.104C524.081 252.104 520.223 248.163 520.223 243.302C520.223 238.441 524.081 234.5 528.841 234.5C533.601 234.5 537.46 238.441 537.46 243.302C537.46 248.163 533.601 252.104 528.841 252.104Z" fill="#CCCCCC"/>
<path d="M330.278 292.005H533.096C533.7 292.005 534.298 291.885 534.857 291.649C535.415 291.413 535.922 291.068 536.35 290.632C536.777 290.196 537.116 289.678 537.348 289.108C537.579 288.538 537.698 287.927 537.698 287.31C537.698 286.693 537.579 286.083 537.348 285.513C537.116 284.943 536.777 284.425 536.35 283.989C535.922 283.553 535.415 283.208 534.857 282.972C534.298 282.736 533.7 282.615 533.096 282.616H330.278C329.059 282.616 327.889 283.111 327.027 283.991C326.165 284.871 325.681 286.065 325.681 287.31C325.681 288.555 326.165 289.749 327.027 290.63C327.889 291.51 329.059 292.005 330.278 292.005Z" fill="#CCCCCC"/>
<path d="M396.352 272.054H533.096C533.7 272.055 534.298 271.934 534.857 271.698C535.415 271.463 535.922 271.117 536.35 270.681C536.777 270.245 537.116 269.728 537.348 269.158C537.579 268.588 537.698 267.977 537.698 267.36C537.698 266.743 537.579 266.132 537.348 265.562C537.116 264.992 536.777 264.475 536.35 264.039C535.922 263.603 535.415 263.257 534.857 263.021C534.298 262.786 533.7 262.665 533.096 262.666H396.352C395.748 262.665 395.149 262.786 394.591 263.021C394.033 263.257 393.525 263.603 393.098 264.039C392.671 264.475 392.331 264.992 392.1 265.562C391.869 266.132 391.75 266.743 391.75 267.36C391.75 267.977 391.869 268.588 392.1 269.158C392.331 269.728 392.671 270.245 393.098 270.681C393.525 271.117 394.033 271.463 394.591 271.698C395.149 271.934 395.748 272.055 396.352 272.054Z" fill="#CCCCCC"/>
<path d="M396.119 135.335C391.359 135.335 387.5 131.395 387.5 126.534C387.5 121.673 391.359 117.732 396.119 117.732C400.878 117.732 404.737 121.673 404.737 126.534C404.737 131.395 400.878 135.335 396.119 135.335Z" fill="#3F3D56"/>
<path d="M197.555 175.236H400.374C401.593 175.236 402.762 174.742 403.624 173.861C404.486 172.981 404.97 171.787 404.97 170.542C404.97 169.297 404.486 168.103 403.624 167.223C402.762 166.342 401.593 165.848 400.374 165.848H197.555C196.336 165.848 195.167 166.342 194.305 167.223C193.443 168.103 192.959 169.297 192.959 170.542C192.959 171.787 193.443 172.981 194.305 173.861C195.167 174.742 196.336 175.236 197.555 175.236Z" fill="#00EEFD"/>
<path d="M263.629 155.286H400.374C400.978 155.287 401.576 155.166 402.134 154.93C402.693 154.695 403.2 154.349 403.627 153.913C404.055 153.477 404.394 152.959 404.625 152.389C404.856 151.819 404.975 151.209 404.975 150.592C404.975 149.975 404.856 149.364 404.625 148.794C404.394 148.224 404.055 147.706 403.627 147.27C403.2 146.834 402.693 146.489 402.134 146.253C401.576 146.018 400.978 145.897 400.374 145.897H263.629C263.025 145.897 262.427 146.018 261.868 146.253C261.31 146.489 260.803 146.834 260.375 147.27C259.948 147.706 259.609 148.224 259.378 148.794C259.146 149.364 259.027 149.975 259.027 150.592C259.027 151.209 259.146 151.819 259.378 152.389C259.609 152.959 259.948 153.477 260.375 153.913C260.803 154.349 261.31 154.695 261.868 154.93C262.427 155.166 263.025 155.287 263.629 155.286Z" fill="#00EEFD"/>
<path d="M197.643 241.497C197.447 240.532 197.045 239.624 196.467 238.835C195.889 238.046 195.149 237.396 194.298 236.932C193.448 236.467 192.508 236.198 191.545 236.144C190.581 236.09 189.618 236.252 188.723 236.62L173.329 218.555L170.059 230.543L185.179 245.86C185.883 247.355 187.1 248.534 188.598 249.174C190.096 249.814 191.772 249.87 193.309 249.332C194.845 248.795 196.135 247.7 196.934 246.256C197.733 244.812 197.985 243.118 197.643 241.497Z" fill="#FFB8B8"/>
<path d="M113.155 156.724C104.254 156.724 97.0381 149.355 97.0381 140.264C97.0381 131.174 104.254 123.805 113.155 123.805C122.056 123.805 129.272 131.174 129.272 140.264C129.272 149.355 122.056 156.724 113.155 156.724Z" fill="#FFB8B8"/>
<path d="M132.089 366.826L140.134 366.825L143.961 335.135L132.087 335.135L132.089 366.826Z" fill="#FFB8B8"/>
<path d="M130.037 374.79L155.977 374.789V374.454C155.977 373.1 155.716 371.759 155.209 370.508C154.701 369.257 153.958 368.12 153.02 367.163C152.083 366.205 150.969 365.446 149.744 364.928C148.519 364.409 147.207 364.143 145.881 364.143L130.037 364.143L130.037 374.79Z" fill="#2F2E41"/>
<path d="M107.81 375.538L115.854 375.537L116.968 344.604L107.808 343.848L107.81 375.538Z" fill="#FFB8B8"/>
<path d="M105.758 383.502L131.698 383.501V383.166C131.698 381.812 131.437 380.471 130.929 379.22C130.422 377.969 129.678 376.832 128.741 375.875C127.803 374.917 126.69 374.158 125.465 373.64C124.24 373.122 122.927 372.855 121.601 372.855L105.757 372.856L105.758 383.502Z" fill="#2F2E41"/>
<path d="M110.098 369.755L116.362 369.001C117.073 368.914 117.729 368.567 118.208 368.025C118.687 367.482 118.958 366.781 118.97 366.05L120.144 282.723C120.147 282.487 120.232 282.26 120.383 282.082C120.533 281.903 120.741 281.784 120.969 281.746C121.197 281.708 121.43 281.753 121.629 281.873C121.828 281.993 121.979 282.18 122.056 282.403L130.748 307.466L130.126 354.445C130.116 355.221 130.398 355.97 130.915 356.539C131.432 357.107 132.143 357.45 132.901 357.496L141.08 357.851C141.828 357.894 142.564 357.647 143.142 357.16C143.719 356.672 144.095 355.979 144.193 355.221L148.465 302.077L148.468 302.043L141.986 246.541L93.3071 250.138L106.82 367.113C106.906 367.846 107.251 368.522 107.791 369.012C108.331 369.503 109.028 369.774 109.751 369.776C109.867 369.776 109.983 369.769 110.098 369.755Z" fill="#2F2E41"/>
<path d="M141.778 251.462C142.215 251.223 142.586 250.876 142.856 250.452C143.126 250.028 143.287 249.541 143.324 249.037C143.324 249.037 138.946 221.236 137.342 220.714L140.852 190.984C141.272 187.358 140.979 183.682 139.99 180.173C139 176.665 137.334 173.393 135.09 170.551C132.929 167.793 130.242 165.511 127.194 163.843C124.145 162.175 120.797 161.155 117.352 160.845C116.861 160.8 116.373 160.765 115.888 160.742C111.735 160.514 107.589 161.315 103.804 163.074C100.019 164.834 96.7053 167.501 94.1455 170.849C91.4903 174.225 89.6729 178.207 88.8481 182.455C88.0233 186.703 88.2154 191.091 89.408 195.247L91.3765 202.243V251.135C91.3786 251.612 91.4902 252.082 91.7023 252.507C91.9145 252.933 92.2214 253.301 92.5982 253.583C98.7278 258.177 105.655 259.802 112.386 259.802C125.124 259.802 137.163 253.985 141.778 251.462Z" fill="#00EEFD"/>
<path d="M179.568 242.514L188.035 236.049C188.367 235.795 188.643 235.473 188.845 235.103C189.048 234.733 189.171 234.324 189.208 233.902C189.245 233.48 189.194 233.055 189.06 232.655C188.925 232.254 188.709 231.887 188.427 231.577L137.989 176.306C136.37 174.548 134.187 173.44 131.837 173.185C129.486 172.93 127.124 173.544 125.179 174.916C123.994 175.759 123.006 176.86 122.284 178.138C121.563 179.416 121.127 180.841 121.006 182.311C120.885 183.782 121.083 185.261 121.586 186.644C122.089 188.027 122.885 189.28 123.916 190.313L175.732 242.252C176.187 242.713 176.778 243.008 177.413 243.094C178.048 243.18 178.694 243.051 179.251 242.727C179.361 242.663 179.467 242.592 179.568 242.514Z" fill="#00EEFD"/>
<path d="M114.77 235.196C114.399 234.286 113.839 233.471 113.126 232.806C112.414 232.142 111.568 231.645 110.647 231.35C109.727 231.056 108.754 230.971 107.798 231.102C106.842 231.234 105.926 231.577 105.114 232.109L86.6832 217.303L85.6663 229.704L103.324 241.863C104.289 243.197 105.7 244.123 107.289 244.465C108.878 244.808 110.535 244.543 111.946 243.722C113.357 242.9 114.424 241.578 114.944 240.007C115.464 238.436 115.402 236.724 114.77 235.196Z" fill="#FFB8B8"/>
<path d="M98.2733 240.976C98.7611 240.822 99.2008 240.539 99.5488 240.157C99.8968 239.775 100.141 239.307 100.257 238.799L102.119 230.814C102.255 230.247 102.225 229.651 102.033 229.102C101.84 228.552 101.493 228.072 101.036 227.723L88.5096 213.887L106.935 184.872C108.329 183.119 109.115 180.942 109.17 178.684C109.225 176.426 108.546 174.212 107.238 172.39C106.195 170.938 104.796 169.793 103.181 169.072C101.565 168.35 99.7923 168.078 98.0407 168.281C96.2891 168.485 94.6213 169.158 93.2064 170.232C91.7914 171.306 90.6795 172.743 89.9833 174.397L72.8539 208.448C71.151 211.831 70.7262 215.735 71.6605 219.418C72.5949 223.1 74.823 226.302 77.9204 228.415L95.4256 240.357C95.9617 240.847 96.6555 241.118 97.3749 241.119C97.6797 241.119 97.9827 241.071 98.2733 240.976Z" fill="#00EEFD"/>
<path d="M101.213 154.979C101.592 155.212 102.02 155.352 102.461 155.389C102.903 155.426 103.346 155.359 103.758 155.193C104.17 155.027 104.539 154.766 104.837 154.431C105.134 154.096 105.352 153.695 105.474 153.26L105.484 153.219C105.812 151.85 105.553 150.416 105.468 149.009C105.383 147.602 105.526 146.057 106.47 145.028C108.229 143.109 111.335 144.148 113.866 143.675C115.349 143.345 116.664 142.475 117.564 141.227C118.464 139.979 118.888 138.439 118.757 136.895C118.722 136.602 118.667 136.309 118.605 136.016C118.451 135.274 118.467 134.505 118.653 133.771C118.838 133.036 119.188 132.355 119.674 131.782C120.161 131.209 120.771 130.758 121.456 130.466C122.142 130.174 122.884 130.048 123.626 130.099C126.181 130.262 128.935 131.068 131.06 129.146C131.839 128.388 132.382 127.412 132.622 126.34C132.861 125.269 132.787 124.149 132.407 123.12C131.218 119.555 127.816 117.673 124.444 116.63C120.274 115.375 115.883 115.084 111.589 115.78C107.296 116.475 103.208 118.139 99.6226 120.65C97.4816 122.174 95.4796 124.092 94.5574 126.585C93.6353 129.079 94.0573 132.233 96.0986 133.893C94.5006 135.602 93.3706 137.711 92.8218 140.007C92.2729 142.303 92.3246 144.706 92.9715 146.975C93.9666 150.312 98.7821 153.533 101.213 154.979Z" fill="#2F2E41"/>
<path d="M-1.52588e-05 383.33C0.000473022 383.507 0.0697632 383.678 0.192719 383.803C0.315674 383.929 0.4823 383.999 0.656189 384H250.669C250.843 384 251.01 383.929 251.133 383.804C251.256 383.678 251.325 383.508 251.325 383.33C251.325 383.152 251.256 382.982 251.133 382.856C251.01 382.73 250.843 382.66 250.669 382.66H0.656189C0.4823 382.66 0.315674 382.731 0.192719 382.856C0.0697632 382.982 0.000473022 383.152 -1.52588e-05 383.33Z" fill="#3F3D56"/>
</g>
<defs>
<clipPath id="clip0_39_2">
<rect width="553" height="384" fill="white" transform="matrix(-1 0 0 1 553 0)"/>
</clipPath>
</defs>
</svg>
