<svg width="128" height="46" viewBox="0 0 128 46" fill="none" xmlns="http://www.w3.org/2000/svg">
<path d="M114.325 37.7491C114.035 37.7491 113.747 37.6731 113.493 37.5251L110.843 35.9571C110.447 35.7361 110.64 35.6571 110.771 35.6121C111.299 35.4281 111.406 35.3851 111.969 35.0671C112.028 35.0341 112.105 35.0461 112.166 35.0821L114.201 36.2911C114.275 36.3321 114.38 36.3321 114.447 36.2911L122.384 31.7101C122.459 31.6681 122.506 31.5831 122.506 31.4951V22.3351C122.506 22.2451 122.459 22.1621 122.383 22.1161L114.449 17.5391C114.375 17.4971 114.278 17.4971 114.204 17.5391L106.271 22.1171C106.195 22.1621 106.146 22.2481 106.146 22.3351V31.4951C106.146 31.5831 106.195 31.6661 106.271 31.7071L108.445 32.9641C109.625 33.5531 110.348 32.8591 110.348 32.1611V23.1161C110.348 22.9891 110.451 22.8881 110.578 22.8881H111.585C111.71 22.8881 111.814 22.9891 111.814 23.1161V32.1611C111.814 33.7351 110.957 34.6381 109.464 34.6381C109.005 34.6381 108.644 34.6381 107.636 34.1421L105.555 32.9441C105.04 32.6461 104.723 32.0901 104.723 31.4961V22.3361C104.723 21.7411 105.04 21.1861 105.555 20.8901L113.492 16.3031C113.994 16.0201 114.661 16.0201 115.159 16.3031L123.096 20.8901C123.61 21.1871 123.929 21.7421 123.929 22.3361V31.4961C123.929 32.0911 123.61 32.6441 123.096 32.9441L115.159 37.5261C114.907 37.6731 114.62 37.7491 114.325 37.7491ZM116.778 31.4381C113.303 31.4381 112.576 29.8431 112.576 28.5061C112.576 28.3801 112.679 28.2771 112.806 28.2771H113.832C113.947 28.2771 114.042 28.3591 114.06 28.4711C114.214 29.5161 114.677 30.0431 116.778 30.0431C118.449 30.0431 119.161 29.6651 119.161 28.7771C119.161 28.2651 118.959 27.8861 116.361 27.6311C114.189 27.4161 112.846 26.9371 112.846 25.1981C112.846 23.5971 114.196 22.6411 116.458 22.6411C119.001 22.6411 120.259 23.5241 120.418 25.4181C120.424 25.4821 120.401 25.5451 120.358 25.5941C120.314 25.6391 120.254 25.6671 120.19 25.6671H119.159C119.052 25.6671 118.958 25.5921 118.936 25.4881C118.688 24.3881 118.088 24.0371 116.457 24.0371C114.632 24.0371 114.42 24.6741 114.42 25.1491C114.42 25.7261 114.67 25.8941 117.135 26.2201C119.574 26.5431 120.733 26.9991 120.733 28.7141C120.734 30.4471 119.292 31.4381 116.778 31.4381Z" fill="#83CD29"/>
<path d="M97.982 25.4301C98.295 25.2471 98.488 24.9131 98.488 24.5501V22.1961C98.488 21.8341 98.296 21.5001 97.982 21.3171L89.618 16.4611C89.303 16.2781 88.915 16.2771 88.599 16.4591L80.183 21.3181C79.869 21.5001 79.675 21.8351 79.675 22.1981V31.9141C79.675 32.2791 79.871 32.6171 80.189 32.7981L88.552 37.5631C88.86 37.7401 89.238 37.7411 89.549 37.5691L94.607 34.7571C94.768 34.6671 94.868 34.4991 94.869 34.3171C94.87 34.1331 94.772 33.9631 94.613 33.8721L86.145 29.0121C85.986 28.9211 85.889 28.7531 85.889 28.5721V25.5261C85.889 25.3441 85.986 25.1771 86.143 25.0871L88.78 23.5671C88.936 23.4761 89.13 23.4761 89.287 23.5671L91.924 25.0871C92.082 25.1781 92.179 25.3451 92.179 25.5261V27.9221C92.179 28.1051 92.276 28.2731 92.433 28.3631C92.591 28.4541 92.785 28.4541 92.943 28.3621L97.982 25.4301Z" fill="#83CD29"/>
<path d="M88.984 24.974C89.045 24.94 89.119 24.94 89.179 24.974L90.794 25.907C90.854 25.942 90.891 26.007 90.891 26.076V27.941C90.891 28.011 90.854 28.075 90.794 28.11L89.179 29.042C89.119 29.077 89.044 29.077 88.984 29.042L87.37 28.11C87.309 28.075 87.272 28.011 87.272 27.941V26.076C87.272 26.007 87.309 25.942 87.37 25.907L88.984 24.974Z" fill="#83CD29"/>
<path d="M67.083 28.854C67.083 28.944 67.035 29.028 66.956 29.074L64.066 30.74C63.987 30.786 63.89 30.786 63.812 30.74L60.922 29.074C60.843 29.028 60.795 28.944 60.795 28.854V25.516C60.795 25.426 60.844 25.341 60.922 25.295L63.812 23.627C63.891 23.58 63.988 23.58 64.067 23.627L66.958 25.295C67.036 25.341 67.084 25.426 67.084 25.516L67.083 28.854ZM67.864 4.138C67.707 4.051 67.515 4.053 67.359 4.144C67.204 4.236 67.108 4.402 67.108 4.582V17.497C67.108 17.623 67.04 17.741 66.931 17.805C66.821 17.868 66.685 17.868 66.575 17.805L64.467 16.59C64.153 16.409 63.766 16.409 63.452 16.59L55.034 21.448C54.719 21.63 54.525 21.966 54.525 22.329V32.048C54.525 32.411 54.719 32.746 55.033 32.929L63.451 37.79C63.765 37.972 64.153 37.972 64.468 37.79L72.888 32.929C73.202 32.746 73.396 32.411 73.396 32.048V7.821C73.396 7.453 73.196 7.113 72.875 6.933L67.864 4.138Z" fill="#83CD29"/>
<path d="M38.238 16.407C38.552 16.225 38.94 16.225 39.254 16.407L47.672 21.264C47.986 21.446 48.18 21.782 48.18 22.145V31.867C48.18 32.23 47.986 32.566 47.672 32.748L39.255 37.609C38.941 37.79 38.553 37.79 38.238 37.609L29.823 32.748C29.509 32.566 29.315 32.23 29.315 31.867V22.144C29.315 21.782 29.509 21.446 29.823 21.264L38.238 16.407Z" fill="#83CD29"/>
<path d="M22.93 22.0641C22.93 21.6981 22.738 21.3621 22.422 21.1811L14.007 16.3381C13.863 16.2541 13.704 16.2111 13.543 16.2051H13.456C13.296 16.2111 13.136 16.2541 12.992 16.3381L4.57599 21.1811C4.26299 21.3621 4.06699 21.6981 4.06699 22.0641L4.08499 35.1041C4.08499 35.2861 4.17999 35.4551 4.33899 35.5431C4.49499 35.6371 4.68799 35.6371 4.84399 35.5431L9.84399 32.6791C10.16 32.4911 10.353 32.1601 10.353 31.7971V25.7051C10.353 25.3411 10.545 25.0061 10.86 24.8241L12.99 23.5981C13.148 23.5051 13.322 23.4611 13.498 23.4611C13.672 23.4611 13.85 23.5051 14.005 23.5981L16.133 24.8241C16.448 25.0061 16.642 25.3411 16.642 25.7051V31.7971C16.642 32.1601 16.837 32.4931 17.151 32.6791L22.151 35.5431C22.308 35.6371 22.504 35.6371 22.659 35.5431C22.814 35.4541 22.911 35.2851 22.911 35.1041L22.93 22.0641Z" fill="#83CD29"/>
</svg>
