<svg width="57" height="57" viewBox="0 0 57 57" fill="none" xmlns="http://www.w3.org/2000/svg">
<path d="M28.5 25.2936C30.7872 25.2936 32.6414 23.4394 32.6414 21.1521C32.6414 18.8649 30.7872 17.0107 28.5 17.0107C26.2128 17.0107 24.3586 18.8649 24.3586 21.1521C24.3586 23.4394 26.2128 25.2936 28.5 25.2936Z" fill="#61DAFB"/>
<path d="M28.5 36.3819C31.7508 39.5437 34.957 41.414 37.5398 41.414C38.3859 41.414 39.1875 41.2358 39.8555 40.8351C42.1711 39.4991 43.0172 36.1593 42.2156 31.3944C42.082 30.5483 41.9039 29.7022 41.6812 28.8116C42.5719 28.5444 43.3734 28.2772 44.175 28.0101C48.6726 26.2733 51.1664 23.8687 51.1664 21.2413C51.1664 18.5694 48.6726 16.1647 44.175 14.4726C43.3734 14.1608 42.5719 13.8937 41.6812 13.671C41.9039 12.7804 42.082 11.9343 42.2156 11.0882C42.9727 6.23428 42.1266 2.8499 39.8109 1.51396C39.143 1.11318 38.3414 0.935059 37.4953 0.935059C34.957 0.935059 31.7062 2.80537 28.4555 5.96709C25.2492 2.80537 22.043 0.935059 19.4602 0.935059C18.6141 0.935059 17.8125 1.11318 17.1445 1.51396C14.8289 2.8499 13.9828 6.18975 14.7844 10.9546C14.918 11.8007 15.0961 12.6468 15.3187 13.5374C14.4281 13.8046 13.6266 14.0718 12.825 14.339C8.32734 16.0757 5.83359 18.4804 5.83359 21.1077C5.83359 23.7796 8.32734 26.1843 12.825 27.8765C13.6266 28.1882 14.4281 28.4554 15.3187 28.678C15.0961 29.5687 14.918 30.4147 14.7844 31.2608C14.0273 36.0257 14.8734 39.4101 17.1445 40.7015C17.8125 41.1022 18.6141 41.2804 19.4602 41.2804C22.043 41.3694 25.2492 39.4991 28.5 36.3819ZM26.0062 30.3702C26.8078 30.4147 27.6539 30.4147 28.5 30.4147C29.3461 30.4147 30.1922 30.4147 30.9937 30.3702C30.1922 31.439 29.3461 32.4187 28.5 33.3538C27.6539 32.4187 26.8078 31.439 26.0062 30.3702ZM20.4844 25.7835C20.9297 26.5405 21.3305 27.253 21.8203 27.9655C20.4398 27.7874 19.1484 27.5647 17.9016 27.2976C18.3023 26.0952 18.7476 24.8483 19.282 23.6015C19.6383 24.314 20.0391 25.071 20.4844 25.7835ZM17.9016 15.0515C19.1484 14.7843 20.4398 14.5616 21.8203 14.3835C21.375 15.096 20.9297 15.8085 20.4844 16.5655C20.0391 17.3226 19.6383 18.0351 19.282 18.7921C18.7031 17.5007 18.2578 16.2538 17.9016 15.0515ZM20.3508 21.1522C20.9297 19.9499 21.5531 18.7476 22.2656 17.5452C22.9336 16.3874 23.6906 15.2296 24.4477 14.0718C25.7836 13.9827 27.1195 13.9382 28.5 13.9382C29.925 13.9382 31.2609 13.9827 32.5523 14.0718C33.3539 15.2296 34.0664 16.3874 34.7344 17.5452C35.4469 18.7476 36.0703 19.9499 36.6492 21.1522C36.0703 22.3546 35.4469 23.5569 34.7344 24.7593C34.0664 25.9171 33.3094 27.0749 32.5523 28.2327C31.2164 28.3218 29.8805 28.3663 28.5 28.3663C27.075 28.3663 25.7391 28.3218 24.4477 28.2327C23.6461 27.0749 22.9336 25.9171 22.2656 24.7593C21.5531 23.5569 20.9297 22.3546 20.3508 21.1522ZM37.7625 18.7476L36.5602 16.521C36.1148 15.764 35.7141 15.0515 35.2242 14.339C36.6047 14.5171 37.8961 14.7397 39.143 15.0069C38.7422 16.2538 38.2969 17.5007 37.7625 18.7476ZM37.7625 23.5569C38.2969 24.8038 38.7422 26.0507 39.143 27.253C37.8961 27.5202 36.6047 27.7429 35.2242 27.921C35.6695 27.2085 36.1148 26.496 36.5602 25.739C36.9609 25.071 37.3617 24.314 37.7625 23.5569ZM38.7867 39.0093C38.4305 39.2319 37.9851 39.321 37.4953 39.321C35.3133 39.321 32.5969 37.5397 29.925 34.8679C31.2164 33.4874 32.4633 31.9288 33.7101 30.1921C35.8031 30.014 37.807 29.7022 39.6773 29.2569C39.9 30.0585 40.0336 30.8601 40.1672 31.6616C40.7906 35.4468 40.3008 38.1632 38.7867 39.0093ZM41.1023 15.5413C46.0898 16.9663 49.0734 19.1483 49.0734 21.1522C49.0734 22.889 47.025 24.6257 43.418 26.0062C42.7055 26.2733 41.9039 26.5405 41.1023 26.7632C40.5234 24.9374 39.8109 23.0671 38.9203 21.1522C39.8109 19.2374 40.568 17.3671 41.1023 15.5413ZM37.5398 2.9835C38.0297 2.9835 38.4305 3.07256 38.8312 3.29521C40.3008 4.14131 40.8352 6.81318 40.2117 10.6429C40.0781 11.3999 39.9 12.2015 39.7219 13.0476C37.8516 12.6468 35.8477 12.3351 33.7547 12.1124C32.5523 10.3757 31.2609 8.81709 29.9695 7.43662C32.6414 4.80928 35.3578 2.9835 37.5398 2.9835ZM30.9937 11.9343C30.1922 11.8897 29.3461 11.8897 28.5 11.8897C27.6539 11.8897 26.8078 11.8897 26.0062 11.9343C26.8078 10.8655 27.6539 9.88584 28.5 8.95068C29.3461 9.88584 30.1922 10.9101 30.9937 11.9343ZM18.2133 3.29521C18.5695 3.07256 19.0148 2.9835 19.5047 2.9835C21.6867 2.9835 24.4031 4.76475 27.075 7.43662C25.7836 8.81709 24.5367 10.3757 23.2898 12.1124C21.1969 12.2905 19.193 12.6022 17.3227 13.0476C17.1 12.246 16.9664 11.4444 16.8328 10.6429C16.2094 6.85771 16.6992 4.18584 18.2133 3.29521ZM15.8977 26.7632C10.9102 25.3382 7.92656 23.1562 7.92656 21.1522C7.92656 19.4155 9.97499 17.6788 13.582 16.2983C14.2945 16.0312 15.0961 15.764 15.8977 15.5413C16.4766 17.3671 17.1891 19.2374 18.0797 21.1522C17.1891 23.0671 16.432 24.9819 15.8977 26.7632ZM16.8328 31.6616C16.9664 30.9046 17.1445 30.103 17.3227 29.2569C19.193 29.6577 21.1969 29.9694 23.2898 30.1921C24.4922 31.9288 25.7836 33.4874 27.075 34.8679C24.4031 37.4952 21.6867 39.321 19.5047 39.321C19.0148 39.321 18.6141 39.2319 18.2133 39.0093C16.6992 38.1632 16.2094 35.4468 16.8328 31.6616ZM14.9625 50.0085C15.9422 48.8062 15.9867 47.4702 15.4523 46.1343C14.918 44.7983 13.8047 44.1749 12.4242 44.1304C10.7766 44.0858 9.08437 44.1304 7.43671 44.1304H7.12499V55.664H8.46093V51.2999H10.5539C10.8211 51.2999 11.0437 51.389 11.1773 51.6116L13.8492 55.753C13.8937 55.8421 14.0273 55.9757 14.1164 55.9757H15.8531C14.7844 54.328 13.7601 52.7694 12.6914 51.1663C13.6266 51.0327 14.4281 50.721 14.9625 50.0085ZM8.46093 49.9194V45.5108H8.95078C9.97499 45.5108 11.0437 45.4663 12.068 45.5554C13.2703 45.5999 14.1164 46.5351 14.1164 47.7374C14.1164 48.9397 13.1367 49.8749 11.9344 49.9194C10.8656 49.964 9.79687 49.9194 8.46093 49.9194ZM25.6945 50.4983C24.982 47.3812 22.132 46.5796 19.95 47.5593C18.2578 48.3163 17.5008 49.7858 17.4562 51.6116C17.4117 52.9921 17.8125 54.239 18.8812 55.1741C20.0836 56.2429 21.5531 56.3765 23.0672 56.1093C23.9133 55.9312 24.6703 55.5304 25.2492 54.9069C25.0266 54.5952 24.8039 54.2835 24.5812 54.0163C23.3344 55.0851 21.9539 55.4413 20.4398 54.7288C19.4602 54.239 18.9703 53.0366 18.8812 52.146H25.7836V51.5671C25.8281 51.1663 25.7836 50.8101 25.6945 50.4983ZM18.9703 51.2108C18.8367 49.8749 20.1727 48.4499 21.6422 48.4499C23.3344 48.4054 24.4031 49.4296 24.4477 51.2108H18.9703ZM32.6414 47.3366C31.9734 47.203 31.2609 47.1585 30.593 47.203C29.5242 47.2921 28.5891 47.7819 27.832 48.5835C28.0547 48.8952 28.2328 49.2069 28.5 49.5632C28.5891 49.4741 28.6781 49.3851 28.7672 49.3405C29.4797 48.6726 30.3258 48.3163 31.35 48.4054C32.1516 48.4499 32.9086 48.7171 33.1312 49.5187C33.3094 50.1421 33.2648 50.8101 33.3094 51.478C33.1758 51.478 33.1312 51.4335 33.0867 51.389C32.018 50.4983 30.8156 50.3202 29.5242 50.6319C28.3219 50.9437 27.5648 51.8788 27.4758 53.0812C27.3867 54.4616 28.0102 55.4858 29.2125 55.9757C29.9695 56.2874 30.8156 56.2874 31.6172 56.1093C32.2406 55.9757 32.5078 55.6194 33.3984 55.1296V55.7085H34.6453C34.6453 53.9272 34.6898 51.7452 34.6453 49.6968C34.6453 48.4054 33.8883 47.6038 32.6414 47.3366ZM33.2648 52.9476C33.2203 53.0812 33.2648 53.2147 33.2648 53.3483C33.2648 54.2835 33.0422 54.5952 32.1516 54.9515C31.5281 55.1741 30.8602 55.2632 30.1922 55.0405C29.4352 54.8179 28.9008 54.1499 28.9008 53.3929C28.8562 52.6358 29.3461 51.8788 30.1031 51.6562C31.1273 51.2999 32.0625 51.5226 32.9086 52.146C33.1758 52.3687 33.3539 52.5913 33.2648 52.9476ZM40.2117 48.539C41.3695 48.1827 42.4383 48.4054 43.2398 49.3851L43.3734 49.4741C43.6852 49.2069 43.9523 48.9397 44.3086 48.628C44.175 48.4944 44.1305 48.4054 44.0414 48.2718C42.75 46.8913 40.2117 46.7132 38.6531 47.8265C36.4711 49.4296 36.5156 52.5468 37.5844 54.1944C38.6086 55.753 40.0781 56.2874 41.8148 56.0647C42.8391 55.9312 43.6852 55.4413 44.3531 54.5952C44.0414 54.328 43.7297 54.0608 43.418 53.7491C43.3289 53.8382 43.2844 53.8827 43.2398 53.9718C42.0375 55.3077 40.0336 55.1741 38.9648 53.7491C38.3414 52.903 38.2078 51.9233 38.3859 50.9437C38.475 49.8304 39.0539 48.9397 40.2117 48.539ZM49.4742 54.5952C49.3852 54.6397 49.3406 54.6843 49.3406 54.6843C48.9844 54.9515 48.6281 54.996 48.2273 54.8624C47.8266 54.6843 47.782 54.328 47.7375 53.9718V48.8952C47.7375 48.8062 47.7375 48.9843 47.782 48.539H49.4742V47.203H47.693V44.9765H46.357V47.3812H45.1992C45.1101 47.3812 44.9766 47.4702 44.9766 47.5593C44.932 47.871 44.9766 48.0937 44.9766 48.539H46.4016V54.239C46.4016 54.9515 46.5797 55.5749 47.2031 55.9312C47.8711 56.3319 49.1625 56.2429 49.7414 55.753C49.8305 55.7085 49.875 55.5304 49.875 55.4858C49.7414 55.2187 49.6078 54.9069 49.4742 54.5952Z" fill="#61DAFB"/>
</svg>
