<svg width="305" height="175" viewBox="0 0 305 175" fill="none" xmlns="http://www.w3.org/2000/svg">
<g clip-path="url(#clip0_18_43)">
<path d="M66.0851 155.339C74.8452 155.339 81.9468 148.248 81.9468 139.5C81.9468 130.752 74.8452 123.661 66.0851 123.661C57.3249 123.661 50.2233 130.752 50.2233 139.5C50.2233 148.248 57.3249 155.339 66.0851 155.339Z" fill="#F2F2F2"/>
<path d="M68.6642 153.022C77.4244 153.022 84.5259 145.93 84.5259 137.182C84.5259 128.434 77.4244 121.343 68.6642 121.343C59.904 121.343 52.8025 128.434 52.8025 137.182C52.8025 145.93 59.904 153.022 68.6642 153.022Z" fill="#00EEFD"/>
<path d="M277.691 119.656H81.4384V120.191H277.691V119.656Z" fill="#3F3D56"/>
<path d="M183.078 4.9869H113.42V3.55322H81.8349V4.9869H11.8903C11.2715 4.9869 10.6588 5.1086 10.0872 5.34506C9.51551 5.58152 8.99608 5.9281 8.55855 6.36502C8.12102 6.80193 7.77395 7.32063 7.53716 7.89148C7.30037 8.46234 7.1785 9.07418 7.1785 9.69208V104.94C7.1785 106.188 7.67492 107.385 8.55855 108.267C9.44218 109.15 10.6407 109.646 11.8903 109.646H183.078C184.327 109.646 185.526 109.15 186.409 108.267C187.293 107.385 187.79 106.188 187.79 104.94V9.69208C187.79 9.07418 187.668 8.46234 187.431 7.89148C187.194 7.32063 186.847 6.80193 186.409 6.36502C185.972 5.9281 185.453 5.58152 184.881 5.34506C184.309 5.1086 183.696 4.9869 183.078 4.9869Z" fill="#3F3D56"/>
<path d="M181.472 13.3022H13.4956V107.925H181.472V13.3022Z" fill="#00EEFD"/>
<path d="M97.3404 10.7216C98.2919 10.7216 99.0633 9.95134 99.0633 9.00118C99.0633 8.05102 98.2919 7.28076 97.3404 7.28076C96.3889 7.28076 95.6176 8.05102 95.6176 9.00118C95.6176 9.95134 96.3889 10.7216 97.3404 10.7216Z" fill="#00EEFD"/>
<path opacity="0.1" d="M133.434 107.925H13.4956V13.3023L133.434 107.925Z" fill="black"/>
<path d="M39.7789 100.844C48.6964 100.844 55.9254 93.6256 55.9254 84.7207C55.9254 75.8158 48.6964 68.597 39.7789 68.597C30.8615 68.597 23.6325 75.8158 23.6325 84.7207C23.6325 93.6256 30.8615 100.844 39.7789 100.844Z" fill="#F2F2F2"/>
<path d="M152.225 64.3331H136.534V67.6072H152.225V64.3331Z" fill="#3F3D56"/>
<path d="M171.194 38.8421H117.564V40.2453H171.194V38.8421Z" fill="#3F3D56"/>
<path d="M171.194 43.2855H117.564V44.6886H171.194V43.2855Z" fill="#3F3D56"/>
<path d="M171.194 47.7289H117.564V49.1321H171.194V47.7289Z" fill="#3F3D56"/>
<path d="M171.194 52.1722H117.564V53.5754H171.194V52.1722Z" fill="#3F3D56"/>
<path d="M171.194 56.6157H117.564V58.0188H171.194V56.6157Z" fill="#3F3D56"/>
<path d="M171.194 15.2219H164.637V21.7701H171.194V15.2219Z" fill="#F2F2F2"/>
<path d="M174.239 24.8103H166.276V16.8589H174.239V24.8103ZM166.623 24.4646H173.893V17.2047H166.623V24.4646Z" fill="#3F3D56"/>
<path d="M192.506 106.205H176.112V105.025C176.112 104.995 176.106 104.964 176.095 104.936C176.083 104.907 176.066 104.882 176.044 104.86C176.022 104.838 175.996 104.821 175.968 104.809C175.939 104.797 175.909 104.791 175.878 104.791H170.258C170.227 104.791 170.196 104.797 170.168 104.809C170.14 104.821 170.114 104.838 170.092 104.86C170.07 104.882 170.053 104.907 170.041 104.936C170.03 104.964 170.023 104.995 170.023 105.025V106.205H166.511V105.025C166.511 104.995 166.505 104.964 166.493 104.936C166.481 104.907 166.464 104.882 166.442 104.86C166.42 104.838 166.394 104.821 166.366 104.809C166.338 104.797 166.307 104.791 166.276 104.791H160.656C160.625 104.791 160.595 104.797 160.566 104.809C160.538 104.821 160.512 104.838 160.49 104.86C160.468 104.882 160.451 104.907 160.439 104.936C160.428 104.964 160.422 104.995 160.422 105.025V106.205H156.909V105.025C156.909 104.995 156.903 104.964 156.891 104.936C156.879 104.907 156.862 104.882 156.84 104.86C156.818 104.838 156.793 104.821 156.764 104.809C156.736 104.797 156.705 104.791 156.675 104.791H151.054C151.023 104.791 150.993 104.797 150.964 104.809C150.936 104.821 150.91 104.838 150.888 104.86C150.867 104.882 150.849 104.907 150.838 104.936C150.826 104.964 150.82 104.995 150.82 105.025V106.205H147.307V105.025C147.307 104.995 147.301 104.964 147.289 104.936C147.277 104.907 147.26 104.882 147.238 104.86C147.217 104.838 147.191 104.821 147.162 104.809C147.134 104.797 147.103 104.791 147.073 104.791H141.452C141.421 104.791 141.391 104.797 141.362 104.809C141.334 104.821 141.308 104.838 141.286 104.86C141.265 104.882 141.247 104.907 141.236 104.936C141.224 104.964 141.218 104.995 141.218 105.025V106.205H137.705V105.025C137.705 104.995 137.699 104.964 137.687 104.936C137.675 104.907 137.658 104.882 137.636 104.86C137.615 104.838 137.589 104.821 137.56 104.809C137.532 104.797 137.502 104.791 137.471 104.791H131.85C131.819 104.791 131.789 104.797 131.761 104.809C131.732 104.821 131.706 104.838 131.685 104.86C131.663 104.882 131.646 104.907 131.634 104.936C131.622 104.964 131.616 104.995 131.616 105.025V106.205H128.103V105.025C128.103 104.995 128.097 104.964 128.085 104.936C128.074 104.907 128.056 104.882 128.035 104.86C128.013 104.838 127.987 104.821 127.959 104.809C127.93 104.797 127.9 104.791 127.869 104.791H122.248C122.218 104.791 122.187 104.797 122.159 104.809C122.13 104.821 122.104 104.838 122.083 104.86C122.061 104.882 122.044 104.907 122.032 104.936C122.02 104.964 122.014 104.995 122.014 105.025V106.205H118.501V105.025C118.501 104.995 118.495 104.964 118.483 104.936C118.472 104.907 118.454 104.882 118.433 104.86C118.411 104.838 118.385 104.821 118.357 104.809C118.328 104.797 118.298 104.791 118.267 104.791H74.2389C74.2082 104.791 74.1777 104.797 74.1493 104.809C74.1209 104.821 74.0951 104.838 74.0733 104.86C74.0516 104.882 74.0343 104.907 74.0225 104.936C74.0108 104.964 74.0047 104.995 74.0047 105.025V106.205H70.4918V105.025C70.4918 104.995 70.4858 104.964 70.474 104.936C70.4622 104.907 70.445 104.882 70.4232 104.86C70.4015 104.838 70.3757 104.821 70.3473 104.809C70.3189 104.797 70.2884 104.791 70.2576 104.791H64.637C64.6063 104.791 64.5758 104.797 64.5474 104.809C64.519 104.821 64.4932 104.838 64.4714 104.86C64.4497 104.882 64.4324 104.907 64.4207 104.936C64.4089 104.964 64.4028 104.995 64.4028 105.025V106.205H60.89V105.025C60.89 104.995 60.8839 104.964 60.8721 104.936C60.8604 104.907 60.8431 104.882 60.8214 104.86C60.7996 104.838 60.7738 104.821 60.7454 104.809C60.717 104.797 60.6865 104.791 60.6558 104.791H55.0352C55.0044 104.791 54.9739 104.797 54.9455 104.809C54.9171 104.821 54.8913 104.838 54.8695 104.86C54.8478 104.882 54.8306 104.907 54.8188 104.936C54.807 104.964 54.801 104.995 54.801 105.025V106.205H51.2881V105.025C51.2881 104.995 51.282 104.964 51.2703 104.936C51.2585 104.907 51.2412 104.882 51.2195 104.86C51.1977 104.838 51.1719 104.821 51.1435 104.809C51.1151 104.797 51.0846 104.791 51.0539 104.791H45.4333C45.4025 104.791 45.3721 104.797 45.3437 104.809C45.3152 104.821 45.2894 104.838 45.2677 104.86C45.2459 104.882 45.2287 104.907 45.2169 104.936C45.2051 104.964 45.1991 104.995 45.1991 105.025V106.205H41.6862V105.025C41.6862 104.995 41.6802 104.964 41.6684 104.936C41.6566 104.907 41.6394 104.882 41.6176 104.86C41.5959 104.838 41.5701 104.821 41.5416 104.809C41.5132 104.797 41.4828 104.791 41.452 104.791H35.8314C35.8006 104.791 35.7702 104.797 35.7418 104.809C35.7134 104.821 35.6875 104.838 35.6658 104.86C35.644 104.882 35.6268 104.907 35.615 104.936C35.6033 104.964 35.5972 104.995 35.5972 105.025V106.205H32.0843V105.025C32.0843 104.995 32.0783 104.964 32.0665 104.936C32.0547 104.907 32.0375 104.882 32.0157 104.86C31.994 104.838 31.9682 104.821 31.9398 104.809C31.9113 104.797 31.8809 104.791 31.8501 104.791H26.2295C26.1988 104.791 26.1683 104.797 26.1399 104.809C26.1115 104.821 26.0857 104.838 26.0639 104.86C26.0422 104.882 26.0249 104.907 26.0132 104.936C26.0014 104.964 25.9953 104.995 25.9953 105.025V106.205H22.4824V105.025C22.4824 104.995 22.4764 104.964 22.4646 104.936C22.4529 104.907 22.4356 104.882 22.4139 104.86C22.3921 104.838 22.3663 104.821 22.3379 104.809C22.3095 104.797 22.279 104.791 22.2483 104.791H16.6276C16.5969 104.791 16.5664 104.797 16.538 104.809C16.5096 104.821 16.4838 104.838 16.462 104.86C16.4403 104.882 16.423 104.907 16.4113 104.936C16.3995 104.964 16.3935 104.995 16.3935 105.025V106.205H5.62061C4.12993 106.205 2.70031 106.796 1.64624 107.849C0.592172 108.901 1.42017e-06 110.329 0 111.817V114.355C4.26051e-06 115.844 0.592176 117.272 1.64624 118.324C2.70031 119.377 4.12994 119.968 5.62061 119.968H192.506C193.997 119.968 195.426 119.377 196.48 118.324C197.534 117.272 198.127 115.844 198.127 114.355V111.817C198.127 110.329 197.534 108.901 196.48 107.849C195.426 106.796 193.997 106.205 192.506 106.205Z" fill="#3F3D56"/>
<path d="M43.6873 94.7914C39.6628 94.7914 35.7287 93.5997 32.3825 91.3669C29.0362 89.1342 26.4282 85.9607 24.888 82.2478C23.3479 78.5349 22.945 74.4493 23.7301 70.5077C24.5153 66.5661 26.4532 62.9455 29.299 60.1038C32.1447 57.2621 35.7704 55.3268 39.7175 54.5428C43.6647 53.7588 47.756 54.1611 51.4742 55.6991C55.1923 57.237 58.3702 59.8414 60.6061 63.183C62.842 66.5245 64.0354 70.453 64.0354 74.4719C64.0293 79.8591 61.8835 85.0239 58.0688 88.8332C54.2541 92.6425 49.0821 94.7853 43.6873 94.7914ZM43.6873 54.6871C39.7687 54.6871 35.9381 55.8474 32.68 58.0214C29.4218 60.1954 26.8823 63.2854 25.3828 66.9006C23.8832 70.5158 23.4908 74.4938 24.2553 78.3317C25.0198 82.1696 26.9068 85.6949 29.6776 88.4618C32.4485 91.2288 35.9787 93.1131 39.822 93.8765C43.6653 94.6399 47.649 94.2481 51.2692 92.7506C54.8895 91.2532 57.9839 88.7173 60.1609 85.4637C62.3379 82.2101 63.4999 78.3849 63.4999 74.4719C63.494 69.2264 61.4047 64.1975 57.6904 60.4885C53.9761 56.7794 48.9401 54.693 43.6873 54.6871Z" fill="#3F3D56"/>
<path d="M225.214 8.70081H156.941V9.23553H225.214V8.70081Z" fill="#3F3D56"/>
<path d="M305 149.868H108.748V150.403H305V149.868Z" fill="#3F3D56"/>
<path d="M119.859 174.465H51.5856V175H119.859V174.465Z" fill="#3F3D56"/>
<path d="M133.602 147.049H126.105V154.535H133.602V147.049Z" fill="#00EEFD"/>
<path d="M138.153 150.257H129.05V141.167H138.153V150.257ZM129.446 149.862H137.757V141.562H129.446V149.862Z" fill="#3F3D56"/>
<path d="M220.617 5.88196H213.12V13.3681H220.617V5.88196Z" fill="#00EEFD"/>
<path d="M225.168 9.09031H216.065V0H225.168V9.09031ZM216.461 8.69508H224.772V0.395232H216.461V8.69508Z" fill="#3F3D56"/>
<path d="M296.119 147.049H288.622V154.535H296.119V147.049Z" fill="#00EEFD"/>
<path d="M300.67 150.257H291.567V141.167H300.67V150.257ZM291.963 149.862H300.275V141.562H291.963V149.862Z" fill="#3F3D56"/>
<path d="M283.046 62.0168H282.409V44.5951C282.409 43.2709 282.148 41.9597 281.64 40.7364C281.133 39.513 280.389 38.4015 279.451 37.4651C278.514 36.5288 277.4 35.7861 276.175 35.2794C274.95 34.7726 273.637 34.5118 272.311 34.5118H235.349C234.023 34.5118 232.71 34.7726 231.485 35.2794C230.26 35.7861 229.147 36.5288 228.209 37.4651C227.271 38.4015 226.528 39.513 226.02 40.7364C225.513 41.9597 225.252 43.2709 225.252 44.5951V140.172C225.252 141.496 225.513 142.807 226.02 144.031C226.528 145.254 227.271 146.366 228.209 147.302C229.147 148.238 230.26 148.981 231.485 149.488C232.71 149.994 234.023 150.255 235.349 150.255H272.311C273.637 150.255 274.95 149.994 276.175 149.488C277.4 148.981 278.514 148.238 279.451 147.302C280.389 146.366 281.133 145.254 281.64 144.031C282.148 142.807 282.409 141.496 282.409 140.172V74.4179H283.046V62.0168Z" fill="#3F3D56"/>
<path d="M280.258 45.1877V140.625C280.259 142.622 279.465 144.538 278.051 145.95C276.637 147.363 274.719 148.157 272.719 148.157H235.578C233.578 148.157 231.66 147.363 230.246 145.95C228.832 144.538 228.038 142.622 228.039 140.625V45.1877C228.039 43.191 228.833 41.2761 230.247 39.8642C231.661 38.4523 233.579 37.659 235.578 37.6588H240.084C239.862 38.202 239.778 38.7913 239.838 39.3748C239.898 39.9583 240.101 40.5181 240.429 41.0049C240.756 41.4917 241.199 41.8906 241.717 42.1663C242.236 42.4421 242.814 42.5863 243.402 42.5863H264.577C265.164 42.5863 265.743 42.4421 266.261 42.1664C266.78 41.8906 267.222 41.4917 267.55 41.0049C267.878 40.5181 268.081 39.9583 268.141 39.3748C268.201 38.7913 268.116 38.202 267.894 37.6588H272.719C274.718 37.659 276.636 38.4523 278.05 39.8642C279.464 41.2761 280.258 43.191 280.258 45.1877Z" fill="#00EEFD"/>
<path d="M259.681 100.586H248.617V103.86H259.681V100.586Z" fill="#3F3D56"/>
<path d="M273.056 75.0953H235.241V76.4985H273.056V75.0953Z" fill="#3F3D56"/>
<path d="M273.056 79.5387H235.241V80.9419H273.056V79.5387Z" fill="#3F3D56"/>
<path d="M273.056 83.9821H235.241V85.3852H273.056V83.9821Z" fill="#3F3D56"/>
<path d="M273.056 88.4255H235.241V89.8287H273.056V88.4255Z" fill="#3F3D56"/>
<path d="M273.056 92.8688H235.241V94.272H273.056V92.8688Z" fill="#3F3D56"/>
<path d="M255.47 56.4612H248.912V63.0093H255.47V56.4612Z" fill="#F2F2F2"/>
<path d="M251.422 58.0986V66.05H259.385V58.0986H251.422ZM259.04 65.7051H251.768V58.4435H259.04V65.7051Z" fill="#3F3D56"/>
<path opacity="0.1" d="M280.258 130.433V140.625C280.259 142.622 279.465 144.538 278.051 145.95C276.637 147.363 274.719 148.156 272.719 148.157H235.578C233.578 148.156 231.66 147.363 230.246 145.95C228.832 144.538 228.038 142.622 228.039 140.625V89.2356L259.329 113.921L259.865 114.344L265.685 118.934L266.229 119.365L280.258 130.433Z" fill="black"/>
<path d="M250.936 145.064C257.422 145.064 262.681 139.813 262.681 133.335C262.681 126.858 257.422 121.607 250.936 121.607C244.449 121.607 239.191 126.858 239.191 133.335C239.191 139.813 244.449 145.064 250.936 145.064Z" fill="#F2F2F2"/>
<path d="M85.7222 175C81.1153 175 76.6117 173.636 72.7812 171.08C68.9506 168.524 65.9651 164.891 64.2021 160.641C62.439 156.391 61.9778 151.714 62.8765 147.202C63.7753 142.69 65.9938 138.545 69.2514 135.292C72.509 132.039 76.6595 129.823 81.1779 128.926C85.6964 128.028 90.3799 128.489 94.6362 130.25C98.8925 132.01 102.53 134.992 105.09 138.817C107.649 142.642 109.015 147.139 109.015 151.74C109.008 157.906 106.552 163.819 102.185 168.179C97.8185 172.54 91.8978 174.993 85.7222 175ZM85.7222 129.014C81.2212 129.014 76.8212 130.347 73.0787 132.844C69.3362 135.341 66.4193 138.89 64.6968 143.043C62.9743 147.195 62.5236 151.765 63.4017 156.173C64.2798 160.581 66.4473 164.631 69.63 167.809C72.8128 170.987 76.8678 173.152 81.2824 174.029C85.697 174.905 90.2728 174.455 94.4312 172.735C98.5897 171.015 102.144 168.103 104.645 164.365C107.145 160.628 108.48 156.234 108.48 151.74C108.473 145.714 106.073 139.938 101.807 135.677C97.5404 131.417 91.7559 129.021 85.7222 129.014Z" fill="#3F3D56"/>
<path d="M254.398 142.382C251.485 142.382 248.638 141.519 246.216 139.904C243.795 138.288 241.907 135.991 240.793 133.304C239.678 130.617 239.387 127.661 239.955 124.808C240.523 121.956 241.926 119.336 243.985 117.279C246.044 115.222 248.668 113.822 251.525 113.255C254.381 112.687 257.342 112.978 260.033 114.091C262.724 115.204 265.023 117.089 266.641 119.507C268.26 121.926 269.123 124.769 269.123 127.677C269.119 131.576 267.566 135.313 264.805 138.07C262.045 140.827 258.302 142.377 254.398 142.382ZM254.398 113.507C251.591 113.507 248.847 114.338 246.514 115.895C244.18 117.452 242.362 119.665 241.288 122.254C240.214 124.844 239.933 127.693 240.48 130.441C241.028 133.19 242.379 135.715 244.364 137.697C246.348 139.679 248.877 141.028 251.629 141.575C254.382 142.122 257.235 141.841 259.828 140.769C262.421 139.696 264.637 137.88 266.196 135.55C267.755 133.219 268.588 130.48 268.588 127.677C268.583 123.92 267.087 120.318 264.427 117.662C261.767 115.005 258.16 113.511 254.398 113.507Z" fill="#3F3D56"/>
</g>
<defs>
<clipPath id="clip0_18_43">
<rect width="305" height="175" fill="white"/>
</clipPath>
</defs>
</svg>
