<svg width="36" height="43" viewBox="0 0 36 43" fill="none" xmlns="http://www.w3.org/2000/svg">
<path d="M14.2958 37.0499C13.6474 37.1174 13.0972 37.1849 12.5469 37.2428C9.68777 37.5225 7.19214 36.7605 5.30568 34.5709C4.71616 33.886 4.3821 32.9986 3.881 32.2366C3.1048 31.0405 2.30895 29.854 1.45415 28.7062C1.15939 28.3107 0.648472 28.0792 0.255459 27.7416C0.12773 27.6355 0.0884279 27.4329 0 27.2689C0.176856 27.2014 0.343887 27.0857 0.520743 27.0664C2.78057 26.8638 4.37227 27.8863 5.48253 29.7286C6.8679 32.0244 8.87227 33.2783 11.5939 33.2783C12.3799 33.2783 13.1659 33.0179 13.9421 32.8443C14.0895 32.8057 14.2664 32.5838 14.286 32.4198C14.4236 31.4167 14.5513 30.4135 15.0229 29.4971C15.1998 29.1595 15.4061 28.8412 15.6124 28.494C14.8166 28.3396 14.0502 28.2239 13.2937 28.0406C9.80568 27.1725 6.92686 25.4555 5.25655 22.1952C4.60808 20.9219 4.24454 19.5522 4.19542 18.1246C4.11681 15.9254 4.14629 13.7165 4.59825 11.5461C4.92249 10.0221 5.51201 8.60414 6.69105 7.5045C6.94651 7.26336 6.99563 7.05115 6.85808 6.6846C6.19978 4.88082 6.131 3.0481 6.69105 1.20574C6.80895 0.810255 6.91703 0.414773 7.03493 0C9.72707 0.501586 11.3286 2.28608 12.8319 4.26348C14.3843 3.13492 16.2216 3.03846 18.0098 2.92271C20.1321 2.78766 22.2642 2.8166 24.3766 3.15421C25.4771 3.32783 26.155 3.54969 27.226 4.17667C28.1496 3.24102 29.0142 2.29572 29.9672 1.43724C30.7238 0.75238 31.667 0.318314 32.6889 0.0868128C32.9738 0.0192916 33.1212 0.0482292 33.2391 0.356898C34.0349 2.48864 34.1528 4.61074 33.2784 6.74248C33.1605 7.03186 33.1703 7.23442 33.4159 7.46592C34.8308 8.78741 35.4793 10.4947 35.6954 12.3371C35.8919 14.0444 36 15.7614 36 17.4784C36 19.9188 35.2631 22.1566 33.7009 24.0762C32.6004 25.4362 31.1758 26.4105 29.5644 27.1435C28.0022 27.8477 26.3712 28.2528 24.6812 28.465C24.6419 28.4747 24.6026 28.5036 24.5338 28.5326C25.6932 30.1627 25.8799 31.9954 25.8603 33.8957C25.8308 36.664 25.8406 39.4228 25.8603 42.1911C25.8603 42.6252 25.7325 42.7313 25.3002 42.7313C21.8122 42.712 18.3242 42.712 14.8362 42.7313C14.4039 42.7313 14.2664 42.5963 14.2664 42.1815C14.286 40.6864 14.2762 39.1913 14.2762 37.6962C14.2959 37.4743 14.2958 37.2814 14.2958 37.0499Z" fill="white"/>
</svg>
