<svg width="290" height="163" viewBox="0 0 290 163" fill="none" xmlns="http://www.w3.org/2000/svg">
<g clip-path="url(#clip0_18_8)">
<path d="M290 153.243H274.587V153.898H290V153.243Z" fill="#3F3D56"/>
<path d="M242.727 144.88C242.727 154.504 249.896 153.983 258.739 153.983C267.582 153.983 274.751 154.504 274.751 144.88C274.751 135.256 267.582 119.131 258.739 119.131C249.896 119.131 242.727 135.256 242.727 144.88Z" fill="#3F3D56"/>
<path d="M205.073 65.4076C205.081 65.3804 205.09 65.3529 205.099 65.3256C205.095 65.3375 205.091 65.349 205.087 65.3611L205.073 65.4076Z" fill="#2F2E41"/>
<path d="M234.688 129.504L240.155 134.706L244.581 130.024L237.812 126.643L234.688 129.504Z" fill="#FFB9B9"/>
<path d="M241.734 130.532C241.734 130.532 235.11 130.099 235.885 132.031C236.659 133.963 235.018 141.063 235.018 141.063C235.018 141.063 232.557 153.814 240.339 148.74C248.121 143.666 246.427 140.141 246.427 140.141C246.427 140.141 248.699 136.711 248.215 135.504C247.731 134.297 243.885 129.66 243.148 130.241C242.958 130.408 242.728 130.523 242.48 130.574C242.232 130.625 241.975 130.611 241.734 130.532Z" fill="#2F2E41"/>
<path d="M244.061 108.957C244.061 108.957 214.901 106.616 212.557 112.598C210.214 118.58 214.901 123.002 214.901 123.002L233.907 132.365L239.969 126.948L236.51 123.782C236.51 123.782 256.037 127.423 256.558 124.562C257.079 121.701 254.475 106.616 244.061 108.957Z" fill="#2F2E41"/>
<path d="M210.214 114.159C210.214 114.159 205.007 128.724 210.214 127.943C215.421 127.163 214.901 115.459 214.901 115.459L210.214 114.159Z" fill="#FFB9B9"/>
<path d="M221.8 84.3785C221.8 84.3785 218.546 86.0691 219.066 88.1498C219.587 90.2306 216.983 103.235 216.983 103.235L209.173 114.679L215.682 117.02C215.682 117.02 224.013 111.558 225.315 107.657C226.617 103.755 228.439 97.7731 228.439 97.7731L221.8 84.3785Z" fill="#E6E6E6"/>
<path d="M223.492 78.2665C228.238 78.2665 232.084 74.4237 232.084 69.6835C232.084 64.9433 228.238 61.1006 223.492 61.1006C218.747 61.1006 214.901 64.9433 214.901 69.6835C214.901 74.4237 218.747 78.2665 223.492 78.2665Z" fill="#FFB9B9"/>
<path d="M222.842 75.7956C222.842 75.7956 223.883 84.3785 223.362 87.7597C222.842 91.1408 233.777 75.5355 233.777 75.5355C233.777 75.5355 229.09 72.1543 229.09 70.8539C229.09 69.5535 222.842 75.7956 222.842 75.7956Z" fill="#FFB9B9"/>
<path d="M213.096 66.3819C213.931 66.2825 214.775 66.2883 215.608 66.3992C216.449 66.515 217.216 66.9429 217.755 67.5978C218.349 68.3925 218.547 69.5996 219.478 69.9442C220.033 70.1496 220.675 69.9542 221.231 70.1585C221.897 70.4039 222.236 71.14 222.413 71.8272C222.59 72.5143 222.365 72.2757 222.819 72.8216C223.273 73.3676 224.903 72.6751 225.075 72.0681C225.147 71.76 225.295 71.4747 225.505 71.238C225.715 71.0012 225.981 70.8204 226.278 70.7119C227.301 70.4158 228.254 71.3039 228.943 72.1154C229.632 72.927 230.554 73.832 231.589 73.578C232.674 73.3115 233.045 71.9775 233.164 70.8673C233.436 68.338 233.396 65.6522 232.172 63.4218C230.399 60.1936 226.354 58.6269 222.703 59.1331C219.053 59.6392 215.83 61.9157 213.475 64.7479C213.056 65.1799 212.765 65.7195 212.634 66.3068" fill="#2F2E41"/>
<path d="M224.143 85.9391L227.007 83.0781L231.954 73.1947L245.232 77.3561C245.232 77.3561 249.919 78.6566 252.783 86.9794C252.783 86.9794 269.967 109.087 267.103 112.728C264.239 116.369 263.718 116.109 259.032 113.248C256.091 111.48 252.943 110.082 249.659 109.087L237.161 110.387L229.611 101.024C229.611 101.024 218.415 93.7417 220.238 85.4189L223.362 81.2575L224.143 85.9391Z" fill="#575A89"/>
<path d="M226.096 112.078L224.534 113.118C224.534 113.118 215.942 123.782 220.108 125.863C224.274 127.943 228.439 115.459 228.439 115.459L226.096 112.078Z" fill="#FFB9B9"/>
<path d="M237.903 77.6449C237.592 77.6681 237.29 77.7558 237.016 77.9023C236.741 78.0489 236.5 78.251 236.309 78.4959C235.276 79.8088 233.736 82.8967 235.99 88.1499C237.818 92.3567 239.298 96.706 240.416 101.154C240.416 101.154 239.114 100.894 239.114 101.935C239.114 102.975 240.155 102.455 239.114 102.975C238.073 103.495 238.333 102.715 238.073 103.495C237.801 104.31 238.097 104.274 237.478 104.572C236.856 104.915 236.314 105.386 235.887 105.953C235.77 106.109 235.629 106.245 235.469 106.356L225.836 111.298C225.836 111.298 224.534 116.5 228.439 116.5C228.439 116.5 252.392 109.737 251.872 104.535C251.363 99.4498 250.356 76.7136 237.903 77.6449Z" fill="#E6E6E6"/>
<path d="M243.02 143.289V150.051L250.309 149.531L248.747 142.768L243.02 143.289Z" fill="#FFB9B9"/>
<path d="M248.227 146.41C248.227 146.41 242.238 143.549 242.238 145.629C242.238 147.71 238.073 153.692 238.073 153.692C238.073 153.692 231.043 164.616 240.155 162.795C249.268 160.975 249.008 157.073 249.008 157.073C249.008 157.073 252.392 154.733 252.392 153.432C252.392 152.132 250.548 146.4 249.647 146.665C249.409 146.75 249.152 146.771 248.903 146.726C248.654 146.681 248.421 146.572 248.227 146.41Z" fill="#2F2E41"/>
<path d="M255.517 109.477C255.517 109.477 237.031 105.316 237.812 112.078C238.593 118.84 239.374 122.742 239.374 122.742L242.499 144.849L249.789 144.069L250.31 139.908C250.31 139.908 251.872 138.347 251.091 137.307C250.309 136.266 252.392 126.123 252.392 126.123C252.392 126.123 264.89 128.724 265.931 121.181C266.973 113.639 264.369 111.298 264.369 111.298L255.517 109.477Z" fill="#2F2E41"/>
<path d="M285.538 145.458C286.845 149.409 284.168 153.845 284.168 153.845C284.168 153.845 279.372 151.876 278.065 147.925C276.758 143.974 279.435 139.537 279.435 139.537C279.435 139.537 284.231 141.507 285.538 145.458Z" fill="#00EEFD"/>
<path d="M189.562 0.1073H0.0809021V121.333H189.562V0.1073Z" fill="#E6E6E6"/>
<path d="M184.144 15.312H5.49908V114.161H184.144V15.312Z" fill="white"/>
<path d="M189.481 0H0V8.04147H189.481V0Z" fill="#00EEFD"/>
<path d="M5.982 5.60164C6.806 5.60164 7.47398 4.93435 7.47398 4.11121C7.47398 3.28807 6.806 2.62079 5.982 2.62079C5.158 2.62079 4.49002 3.28807 4.49002 4.11121C4.49002 4.93435 5.158 5.60164 5.982 5.60164Z" fill="white"/>
<path d="M11.6452 5.60164C12.4692 5.60164 13.1372 4.93435 13.1372 4.11121C13.1372 3.28807 12.4692 2.62079 11.6452 2.62079C10.8212 2.62079 10.1532 3.28807 10.1532 4.11121C10.1532 4.93435 10.8212 5.60164 11.6452 5.60164Z" fill="white"/>
<path d="M17.3084 5.60164C18.1324 5.60164 18.8003 4.93435 18.8003 4.11121C18.8003 3.28807 18.1324 2.62079 17.3084 2.62079C16.4844 2.62079 15.8164 3.28807 15.8164 4.11121C15.8164 4.93435 16.4844 5.60164 17.3084 5.60164Z" fill="white"/>
<path d="M169.733 36.7719H102.846V43.9789H169.733V36.7719Z" fill="#00EEFD"/>
<path d="M169.733 56.7795H102.846V60.383H169.733V56.7795Z" fill="#E6E6E6"/>
<path d="M169.733 67.7783H102.846V71.3818H169.733V67.7783Z" fill="#E6E6E6"/>
<path d="M169.733 78.9164H102.846V82.5199H169.733V78.9164Z" fill="#E6E6E6"/>
<path d="M76.3182 33.3449H17.5376V92.0643H76.3182V33.3449Z" fill="#E6E6E6"/>
<path d="M18.0254 32.8816L17.098 33.8081L75.7978 92.4468L76.7253 91.5203L18.0254 32.8816Z" fill="white"/>
<path d="M75.7978 32.8816L17.098 91.5203L18.0254 92.4468L76.7252 33.8081L75.7978 32.8816Z" fill="white"/>
</g>
<defs>
<clipPath id="clip0_18_8">
<rect width="290" height="163" fill="white"/>
</clipPath>
</defs>
</svg>
